<?xml version="1.0" encoding="UTF-8"?>
<!-- Generator: Adobe Illustrator 24.1.0, SVG Export Plug-In . SVG Version: 6.00 Build 0)  -->
<svg xmlns="http://www.w3.org/2000/svg" xmlns:xlink="http://www.w3.org/1999/xlink" id="Layer_1" x="0px" y="0px" viewBox="0 0 554.6 593.5" style="enable-background:new 0 0 554.6 593.5;" xml:space="preserve">
<style type="text/css">
	.st0{opacity:0.1;fill:#E92733;enable-background:new    ;}
	.st1{fill:#E92733;}
	.st2{fill:url(#SVGID_1_);}
	.st3{fill:url(#SVGID_2_);}
	.st4{opacity:6.000000e-02;fill:url(#SVGID_3_);enable-background:new    ;}
	.st5{fill:url(#SVGID_4_);}
	.st6{fill:url(#SVGID_5_);}
	.st7{fill:#3F3D56;}
	.st8{fill:#091240;}
	.st9{fill:#25233A;}
	.st10{fill:url(#SVGID_6_);}
	.st11{fill:url(#SVGID_7_);}
	.st12{fill:url(#SVGID_8_);}
	.st13{opacity:0.19;fill:url(#SVGID_9_);enable-background:new    ;}
	.st14{fill:url(#SVGID_10_);}
	.st15{opacity:0.19;fill:url(#SVGID_11_);enable-background:new    ;}
	.st16{fill:url(#SVGID_12_);}
	.st17{fill:url(#SVGID_13_);}
	.st18{fill:url(#SVGID_14_);}
	.st19{fill:url(#SVGID_15_);}
	.st20{fill:url(#SVGID_16_);}
	.st21{fill:none;stroke:#FFFFFF;stroke-width:3.63;stroke-linecap:round;stroke-miterlimit:10;}
	.st22{fill:url(#SVGID_17_);}
	.st23{opacity:6.000000e-02;fill:url(#SVGID_18_);enable-background:new    ;}
	.st24{fill:url(#SVGID_19_);}
	.st25{opacity:6.000000e-02;fill:url(#SVGID_20_);enable-background:new    ;}
	.st26{fill:url(#SVGID_21_);}
	.st27{fill:url(#SVGID_22_);}
	.st28{fill:url(#SVGID_23_);}
	.st29{fill:url(#SVGID_24_);}
	.st30{fill:url(#SVGID_25_);}
	.st31{opacity:6.000000e-02;fill:url(#SVGID_26_);enable-background:new    ;}
	.st32{fill:url(#SVGID_27_);}
	.st33{fill:url(#SVGID_28_);}
	.st34{opacity:6.000000e-02;fill:url(#SVGID_29_);enable-background:new    ;}
	.st35{fill:url(#SVGID_30_);}
	.st36{opacity:6.000000e-02;fill:url(#SVGID_31_);enable-background:new    ;}
	.st37{fill:url(#SVGID_32_);}
	.st38{opacity:0.19;fill:url(#SVGID_33_);enable-background:new    ;}
	.st39{fill:url(#SVGID_34_);}
	.st40{opacity:0.18;fill:#FFFFFF;enable-background:new    ;}
	.st41{clip-path:url(#SVGID_36_);}
	.st42{fill:#FFACB3;}
	.st43{fill:#FFFFFF;}
</style>

<path class="st0" d="M53.7,200.1c-41.9,45.5-68.1,112.6-45.1,170c15.8,39.5,51.3,67.3,74.6,102.9c18.5,28.3,30.4,62.8,58.3,82  c13.8,9.4,30.2,14.1,46.5,17.4c27.8,5.7,57.6,7.6,83.5-4c26.1-11.7,44.5-35.6,68.1-51.8c30.3-20.8,67.5-27.9,102.1-40.2  s69.9-33.4,81.6-68.2c6.7-19.9,4.7-41.5,7.5-62.3c6-45.3,34.5-90.4,19.7-133.6c-15.9-46.5-73-63.2-122.1-65s-102.1,3.8-143.5-22.7  c-13.2-8.4-24.4-19.8-38.2-27.2c-37.2-20-66,6.1-95.9,25.8C116.3,146.2,81.8,169.6,53.7,200.1z"></path>
<ellipse transform="matrix(0.3412 -0.94 0.94 0.3412 203.3846 445.8229)" class="st1" cx="419.7" cy="77.8" rx="52.4" ry="40.6"></ellipse>
<linearGradient id="SVGID_1_" gradientUnits="userSpaceOnUse" x1="512.9097" y1="116.3494" x2="591.2596" y2="73.5394" gradientTransform="matrix(1 0 0 1 -155.486 -4.5173)">
	<stop offset="0" style="stop-color:#000000"></stop>
	<stop offset="1" style="stop-color:#000000;stop-opacity:0"></stop>
</linearGradient>
<path class="st2" d="M381.6,63.9c9.9-27.2,35-43.1,56.1-35.4s30.2,35.9,20.3,63.1s-35,43.1-56.1,35.4S371.7,91.1,381.6,63.9z"></path>
<ellipse transform="matrix(0.9936 -0.113 0.113 0.9936 -4.6392 18.7527)" class="st1" cx="163.1" cy="50.3" rx="38.4" ry="49.5"></ellipse>
<linearGradient id="SVGID_2_" gradientUnits="userSpaceOnUse" x1="373.7123" y1="139.445" x2="305.0923" y2="34.1649" gradientTransform="matrix(1 0 0 1 -155.4754 -4.5166)">
	<stop offset="0" style="stop-color:#000000"></stop>
	<stop offset="1" style="stop-color:#000000;stop-opacity:0"></stop>
</linearGradient>
<path class="st3" d="M157.5,1.1c21.1-2.4,40.6,17.7,43.7,44.9c3.1,27.2-11.5,51.1-32.5,53.5S128,81.8,124.9,54.6  S136.4,3.5,157.5,1.1z"></path>
<linearGradient id="SVGID_3_" gradientUnits="userSpaceOnUse" x1="277.5472" y1="69.8617" x2="337.1835" y2="69.8617" gradientTransform="matrix(1 0 0 1 -155.47 -4.52)">
	<stop offset="0" style="stop-color:#183866"></stop>
	<stop offset="1" style="stop-color:#1A7FC1"></stop>
</linearGradient>
<path class="st4" d="M152.1,64.1c0,2.6,0,5.8,2.3,7.2c1.1,0.5,2.3,0.8,3.5,0.7c6.4,0.3,13.1,1.7,18,5.8s7.5,11.5,4.6,17.2  s-10.2,8-16.7,7.2c-8.3-0.9-15.6-5.7-22.5-10.2c-4.1-2.7-8.2-5.5-11.3-9.3c-9.6-12.1-11-36.8-1.3-49.3  C143.4,14.4,152,54.2,152.1,64.1z"></path>
<ellipse transform="matrix(0.9779 -0.2091 0.2091 0.9779 -12.621 22.8369)" class="st1" cx="101.7" cy="71.1" rx="38.4" ry="49.5"></ellipse>
<linearGradient id="SVGID_4_" gradientUnits="userSpaceOnUse" x1="333.3992" y1="118.8539" x2="245.8592" y2="69.1739" gradientTransform="matrix(1 0 0 1 -155.4809 -4.5151)">
	<stop offset="0" style="stop-color:#000000"></stop>
	<stop offset="1" style="stop-color:#000000;stop-opacity:0"></stop>
</linearGradient>
<path class="st5" d="M91.4,22.7c20.7-4.4,42.2,13.7,47.9,40.4s-6.4,52-27.2,56.4s-42.2-13.7-47.9-40.4S70.7,27.1,91.4,22.7z"></path>
<path class="st1" d="M372.6,448.5v116.4c0,0-2.2,19.9-24.8,21.5c-13.1,0.9-62.2,3.2-100.9,4.9c-27.8,1.2-50.2,2.2-50.2,2.2  s-23-4.1-23-23.5V457.3h0.1l2.5-0.1L372.6,448.5z"></path>
<linearGradient id="SVGID_5_" gradientUnits="userSpaceOnUse" x1="430.0839" y1="464.1756" x2="426.8453" y2="426.2638" gradientTransform="matrix(1 0 0 1 -155.47 -4.52)">
	<stop offset="0" style="stop-color:#68E1FD"></stop>
	<stop offset="0.2" style="stop-color:#5DB4CF"></stop>
	<stop offset="0.46" style="stop-color:#50819B"></stop>
	<stop offset="0.69" style="stop-color:#475C76"></stop>
	<stop offset="0.87" style="stop-color:#41455E"></stop>
	<stop offset="0.99" style="stop-color:#3F3D56"></stop>
</linearGradient>
<path class="st6" d="M373.6,451.2c-0.8-7-5.6-15-20.3-21.6c-34.8-15.5-149.6,5-149.6,5c-17.5,2.6-28.1,11.9-29.4,21.8  c-1.5-11.2,9.5-22.8,29.4-25.8c0,0,114.9-20.5,149.6-5C370.8,433.4,374.4,443.3,373.6,451.2z"></path>
<path class="st7" d="M320,388.7c-0.3,1-0.6,2-1.1,3c-5.7,11.1-27.5,25.6-27.5,25.6s7.7,1.1-8.3,3.1s-27.4-39-9.9-55.8  s34.5-4.9,34.5-4.9l6-0.5c6.4-0.5,12.1,4.2,12.6,10.7c0,0.3,0,0.6,0,0.9c0,2.9-0.6,5.7-1.7,7.3C322.5,381.4,320.9,384.9,320,388.7z"></path>
<path class="st8" d="M306.4,370.8c0,0,3.3-6.3,8-4.3s6.5,12.8,6.5,12.8L306.4,370.8z"></path>
<path class="st9" d="M320,388.7l-1.1,3c-5.7,11.1-27.5,25.6-27.5,25.6s9.1,0.9-6.9,2.9s-23.9-24.1-12.6-28.4s0.8-19.5,12.6-28.1  s19.7,6.1,19.7,6.1L320,388.7z"></path>
<path class="st1" d="M373.6,451.2c-0.2,1.5-0.5,3-0.9,4.5c-1,3.3-2.7,6.4-4.8,9.1c0,0-128.7,22.1-167.5,12.4c-8-2-14-4.9-18.3-8.3  c-4.6-3.8-7.2-8.1-7.7-12.5c1.3-9.8,11.8-19.1,29.4-21.8c0,0,114.9-20.5,149.6-5C368,436.1,372.9,444.1,373.6,451.2z"></path>
<linearGradient id="SVGID_6_" gradientUnits="userSpaceOnUse" x1="436.5608" y1="419.3856" x2="407.5207" y2="579.0756" gradientTransform="matrix(1 0 0 1 -155.47 -4.52)">
	<stop offset="0" style="stop-color:#000000"></stop>
	<stop offset="1" style="stop-color:#000000;stop-opacity:0"></stop>
</linearGradient>
<path class="st10" d="M373.6,451.2c-0.2,1.5-0.5,3-0.9,4.5c-1,3.3-2.7,6.4-4.8,9.1c0,0-128.7,22.1-167.5,12.4c-8-2-14-4.9-18.3-8.3  c-4.6-3.8-7.2-8.1-7.7-12.5c1.3-9.8,11.8-19.1,29.4-21.8c0,0,114.9-20.5,149.6-5C368,436.1,372.9,444.1,373.6,451.2z"></path>
<linearGradient id="SVGID_7_" gradientUnits="userSpaceOnUse" x1="420.7076" y1="430.9024" x2="450.2375" y2="508.4124" gradientTransform="matrix(1 0 0 1 -155.47 -4.52)">
	<stop offset="0" style="stop-color:#000000"></stop>
	<stop offset="1" style="stop-color:#000000;stop-opacity:0"></stop>
</linearGradient>
<path class="st11" d="M373.1,448.5l-0.5,7.2c-1,3.3-2.7,6.4-4.8,9.1c0,0-128.7,22.1-167.5,12.4c-8-2-14-4.9-18.3-8.3  c0.8-0.1,34.5-6.5,45.9-7.5s-4.3-18.5,19.5-27.8s86.8-4.2,86.8-4.2L373.1,448.5z"></path>
<path class="st1" d="M259.7,431.8c0,0-23.4,17.4-20.4,38.9s46.5,19,69.3,9c0,0,31.1,8.6,41.7,0c10.5-8.6,5.8-43-16-50.2  S287.2,417.5,259.7,431.8z"></path>
<linearGradient id="SVGID_8_" gradientUnits="userSpaceOnUse" x1="448.637" y1="504.9372" x2="456.027" y2="443.6373" gradientTransform="matrix(1 0 0 1 -155.47 -4.52)">
	<stop offset="0" style="stop-color:#000000"></stop>
	<stop offset="1" style="stop-color:#000000;stop-opacity:0"></stop>
</linearGradient>
<path class="st12" d="M259.7,431.8c0,0-23.4,17.4-20.4,38.9s46.5,19,69.3,9c0,0,31.1,8.6,41.7,0c10.5-8.6,5.8-43-16-50.2  S287.2,417.5,259.7,431.8z"></path>
<linearGradient id="SVGID_9_" gradientUnits="userSpaceOnUse" x1="426.9388" y1="469.67" x2="501.1505" y2="469.67" gradientTransform="matrix(1 0 0 1 -155.47 -4.52)">
	<stop offset="0" style="stop-color:#183866"></stop>
	<stop offset="1" style="stop-color:#1A7FC1"></stop>
</linearGradient>
<path class="st13" d="M343.5,450.6c0,0-17.9,7.3-21.2,8.3s-21.1,4.9-24.3,3.4s-19.6-5.9-25-2s4.5,19.3,4.5,19.3l42.4,0.1l25.7-3.2  L343.5,450.6z"></path>
<linearGradient id="SVGID_10_" gradientUnits="userSpaceOnUse" x1="440.8308" y1="433.6666" x2="466.305" y2="433.6666" gradientTransform="matrix(1 0 0 1 -155.47 -4.52)">
	<stop offset="0" style="stop-color:#ECC4D7"></stop>
	<stop offset="0.42" style="stop-color:#EFD4D1"></stop>
	<stop offset="1" style="stop-color:#F2EAC9"></stop>
</linearGradient>
<path class="st14" d="M310.8,438.8c-0.3,4.8-2.1,10-7.9,10.8c-8.5,1.2-12.8-7.5-12.8-7.5s-7.3-12.4-3.9-18.9  c0.7-1.4-1.1-13.5,0.5-14.2c6-2.8,19.6,9.3,21.6,9.5c0.5,0.1,0.8,0.5,1.1,1.2c0.9,2.7-0.1,9.4,0.8,13  C310.7,434.7,310.9,436.7,310.8,438.8z"></path>
<linearGradient id="SVGID_11_" gradientUnits="userSpaceOnUse" x1="444.3" y1="430.4188" x2="465.761" y2="430.4188" gradientTransform="matrix(1 0 0 1 -155.47 -4.52)">
	<stop offset="0" style="stop-color:#183866"></stop>
	<stop offset="1" style="stop-color:#1A7FC1"></stop>
</linearGradient>
<path class="st15" d="M297.4,431c-4.5-3.2-8.5-13.8-8.5-13.8l20.6,2.5c0.9,2.7-0.1,9.4,0.8,13C310.7,434.2,305.6,436.8,297.4,431z"></path>
<linearGradient id="SVGID_12_" gradientUnits="userSpaceOnUse" x1="432.4456" y1="401.1865" x2="479.0025" y2="401.1865" gradientTransform="matrix(1 0 0 1 -155.47 -4.52)">
	<stop offset="0" style="stop-color:#ECC4D7"></stop>
	<stop offset="0.42" style="stop-color:#EFD4D1"></stop>
	<stop offset="1" style="stop-color:#F2EAC9"></stop>
</linearGradient>
<path class="st16" d="M322.7,384.7c0,0,2,24.9-0.2,29.6c-2.6,5.7-4.9,10.2-18.4,9c-17.2-1.6-26.8-18.7-27.1-20s1.9-35.1,21.9-33.4  S320.3,376.2,322.7,384.7z"></path>
<path class="st1" d="M342.1,433.7c0,0,22.8,18.3,15.4,46s-51.9,4.5-51.9,4.5l18.4-13.4c0,0,17.9-2.1,19.4-6.5  S342.1,433.7,342.1,433.7z"></path>
<linearGradient id="SVGID_13_" gradientUnits="userSpaceOnUse" x1="424.4019" y1="473.117" x2="528.3019" y2="465.7271" gradientTransform="matrix(1 0 0 1 -155.47 -4.52)">
	<stop offset="0" style="stop-color:#000000"></stop>
	<stop offset="1" style="stop-color:#000000;stop-opacity:0"></stop>
</linearGradient>
<path class="st17" d="M342.1,433.7c0,0,22.8,18.3,15.4,46s-51.9,4.5-51.9,4.5l18.4-13.4c0,0,17.9-2.1,19.4-6.5  S342.1,433.7,342.1,433.7z"></path>
<path class="st1" d="M239.3,470.7c0,0,13.5,40.2,38.7,31.4s51.7-31.2,51.7-31.2l-3.8-9.4c0,0-37.2,13.4-45.9,7.4  s-16.6-34.4-27.8-30.1S238,461.5,239.3,470.7z"></path>
<linearGradient id="SVGID_14_" gradientUnits="userSpaceOnUse" x1="431.8997" y1="533.7562" x2="441.4597" y2="458.9761" gradientTransform="matrix(1 0 0 1 -155.47 -4.52)">
	<stop offset="0" style="stop-color:#000000"></stop>
	<stop offset="1" style="stop-color:#000000;stop-opacity:0"></stop>
</linearGradient>
<path class="st18" d="M239.3,470.7c0,0,13.5,40.2,38.7,31.4s51.7-31.2,51.7-31.2l-3.8-9.4c0,0-37.2,13.4-45.9,7.4  s-16.6-34.4-27.8-30.1S238,461.5,239.3,470.7z"></path>
<linearGradient id="SVGID_15_" gradientUnits="userSpaceOnUse" x1="440.7798" y1="485.2939" x2="448.0797" y2="469.5739" gradientTransform="matrix(1 0 0 1 -155.47 -4.52)">
	<stop offset="0" style="stop-color:#ECC4D7"></stop>
	<stop offset="0.42" style="stop-color:#EFD4D1"></stop>
	<stop offset="1" style="stop-color:#F2EAC9"></stop>
</linearGradient>
<path class="st19" d="M281,463.5c0,0,3-3.5,10.3-1.4c4.5,1.3,8.9,3.3,12.9,5.8c0,0-11.2,2.1-11.7,2.2s-3.7,3.5-5.7,2.9  s-7.6-0.7-7.8-1S277.1,467.7,281,463.5z"></path>
<linearGradient id="SVGID_16_" gradientUnits="userSpaceOnUse" x1="484.7424" y1="481.0651" x2="492.9324" y2="463.4451" gradientTransform="matrix(1 0 0 1 -155.47 -4.52)">
	<stop offset="0" style="stop-color:#ECC4D7"></stop>
	<stop offset="0.42" style="stop-color:#EFD4D1"></stop>
	<stop offset="1" style="stop-color:#F2EAC9"></stop>
</linearGradient>
<path class="st20" d="M326.9,463.5c0,0,11.1-9.8,17-4.6l-0.5,5.4c0,0-1.7,4-14.1,5.7L326.9,463.5z"></path>
<line class="st21" x1="239.1" y1="335" x2="203.4" y2="276.3"></line>
<line class="st21" x1="294.5" y1="328.1" x2="304.1" y2="273.7"></line>
<line class="st21" x1="262.2" y1="328.1" x2="233.3" y2="235.9"></line>
<ellipse transform="matrix(0.9316 -0.3634 0.3634 0.9316 -70.5338 78.854)" class="st1" cx="174.3" cy="226.9" rx="46.1" ry="59.5"></ellipse>
<linearGradient id="SVGID_17_" gradientUnits="userSpaceOnUse" x1="426.6454" y1="199.7368" x2="290.9354" y2="244.1668" gradientTransform="matrix(1 0 0 1 -155.4886 -4.513)">
	<stop offset="0" style="stop-color:#000000"></stop>
	<stop offset="0.62" style="stop-color:#000000;stop-opacity:0.26"></stop>
	<stop offset="1" style="stop-color:#000000;stop-opacity:0"></stop>
</linearGradient>
<path class="st22" d="M152.6,171.5c23.7-9.3,52.6,8.1,64.6,38.7c11.9,30.6,2.4,62.9-21.3,72.2s-52.6-8.1-64.6-38.7  S128.9,180.7,152.6,171.5z"></path>
<linearGradient id="SVGID_18_" gradientUnits="userSpaceOnUse" x1="285.0586" y1="222.1368" x2="378.9991" y2="222.1368" gradientTransform="matrix(1 0 0 1 -155.47 -4.52)">
	<stop offset="0" style="stop-color:#183866"></stop>
	<stop offset="1" style="stop-color:#1A7FC1"></stop>
</linearGradient>
<path class="st23" d="M135.2,186.5c0,0-4.9,10.9-5.6,14s31,11.2,31,11.2s24.8,57.2,57.6,46.5c0,0,3.8-4.8,5.3-14.4  S168,175.7,168,175.7L135.2,186.5z"></path>
<ellipse transform="matrix(0.9936 -0.113 0.113 0.9936 -8.1627 25.8099)" class="st1" cx="223.6" cy="84.9" rx="46.1" ry="59.5"></ellipse>
<linearGradient id="SVGID_19_" gradientUnits="userSpaceOnUse" x1="435.7046" y1="122.8691" x2="350.8946" y2="72.7791" gradientTransform="matrix(1 0 0 1 -155.4724 -4.5213)">
	<stop offset="0" style="stop-color:#000000"></stop>
	<stop offset="1" style="stop-color:#000000;stop-opacity:0"></stop>
</linearGradient>
<path class="st24" d="M216.9,25.8c25.3-2.9,48.8,21.3,52.5,53.9s-13.8,61.4-39.1,64.3s-48.8-21.3-52.5-53.9S191.6,28.7,216.9,25.8z"></path>
<linearGradient id="SVGID_20_" gradientUnits="userSpaceOnUse" x1="340.1477" y1="101.12" x2="410.47" y2="101.12" gradientTransform="matrix(1 0 0 1 -155.47 -4.52)">
	<stop offset="0" style="stop-color:#183866"></stop>
	<stop offset="1" style="stop-color:#1A7FC1"></stop>
</linearGradient>
<path class="st25" d="M203.2,112.3c0.4,0.7,0.9,1.3,1.6,1.8c0.5,0.2,1,0.4,1.6,0.4l14.2,1.8c-0.8-9.5,5.4-18.1,11.6-25.3  c1.6-1.9,3.3-3.9,3.8-6.3c0.2-1.5,0.2-3,0-4.5c-0.6-5.9-1-11.9,0.6-17.6s5.7-11,11.5-12.5l4.8,18.2c1.1,3.7,1.8,7.5,2.1,11.3  c0,4.2-0.5,8.3-1.5,12.4c-3.3,15.4-7.3,30.7-11.8,45.8c-0.3,1.6-1.1,3-2.2,4.1c-1.4,1.2-3.4,1.2-5.2,1.2c-11-0.4-21.7-4.1-32.1-7.7  c-3-1.1-6.2-2.2-8.4-4.5c-1.7-2.1-3-4.5-3.8-7c-1.8-5-8.6-20.5-3.4-24.7C193.3,93.7,200.7,108.2,203.2,112.3z"></path>
<ellipse transform="matrix(0.9779 -0.2091 0.2091 0.9779 -25.6443 35.4402)" class="st1" cx="154.8" cy="139" rx="46.1" ry="59.5"></ellipse>
<linearGradient id="SVGID_21_" gradientUnits="userSpaceOnUse" x1="379.8252" y1="230.0119" x2="293.3952" y2="122.5819" gradientTransform="matrix(1 0 0 1 -155.4781 -4.5168)">
	<stop offset="0" style="stop-color:#000000"></stop>
	<stop offset="1" style="stop-color:#000000;stop-opacity:0"></stop>
</linearGradient>
<path class="st26" d="M142.4,80.9c24.9-5.3,50.7,16.4,57.5,48.5s-7.7,62.5-32.7,67.8c-24.9,5.3-50.7-16.4-57.5-48.5  S117.5,86.2,142.4,80.9z"></path>
<ellipse transform="matrix(0.9779 -0.2091 0.2091 0.9779 -34.4515 48.3182)" class="st1" cx="211.3" cy="187.1" rx="46.1" ry="59.5"></ellipse>
<linearGradient id="SVGID_22_" gradientUnits="userSpaceOnUse" x1="439.2923" y1="175.3608" x2="341.5523" y2="197.1708" gradientTransform="matrix(1 0 0 1 -155.474 -4.5143)">
	<stop offset="0" style="stop-color:#000000"></stop>
	<stop offset="1" style="stop-color:#000000;stop-opacity:0"></stop>
</linearGradient>
<path class="st27" d="M198.8,128.9c24.9-5.3,50.7,16.4,57.5,48.5c6.9,32.1-7.7,62.5-32.7,67.8s-50.7-16.4-57.5-48.5  S173.9,134.3,198.8,128.9z"></path>
<ellipse transform="matrix(0.1702 -0.9854 0.9854 0.1702 235.5748 378.2696)" class="st1" cx="342.4" cy="49.3" rx="49.5" ry="38.4"></ellipse>
<linearGradient id="SVGID_23_" gradientUnits="userSpaceOnUse" x1="455.7963" y1="91.816" x2="523.6464" y2="30.4259" gradientTransform="matrix(1 0 0 1 -155.4545 -4.5282)">
	<stop offset="0" style="stop-color:#000000"></stop>
	<stop offset="1" style="stop-color:#000000;stop-opacity:0"></stop>
</linearGradient>
<path class="st28" d="M304.6,42.7c4.7-26.9,25.4-45.9,46.2-42.3c20.9,3.6,34,28.4,29.4,55.3S354.9,101.6,334,98S300,69.6,304.6,42.7  z"></path>
<ellipse transform="matrix(7.358552e-02 -0.9973 0.9973 7.358552e-02 205.3658 325.1746)" class="st1" cx="277.7" cy="52" rx="49.5" ry="38.4"></ellipse>
<linearGradient id="SVGID_24_" gradientUnits="userSpaceOnUse" x1="510.3959" y1="117.0671" x2="409.4259" y2="37.9071" gradientTransform="matrix(1 0 0 1 -155.5111 -4.4933)">
	<stop offset="0" style="stop-color:#000000"></stop>
	<stop offset="1" style="stop-color:#000000;stop-opacity:0"></stop>
</linearGradient>
<path class="st29" d="M239.4,49.2c2-27.3,20.8-48.1,41.9-46.6c21.1,1.6,36.6,24.9,34.6,52.2S295.2,103,274,101.4  C252.9,99.9,237.4,76.5,239.4,49.2z"></path>
<ellipse transform="matrix(0.9962 -8.732782e-02 8.732782e-02 0.9962 -18.0895 27.5127)" class="st1" cx="305.4" cy="220.5" rx="46.1" ry="59.5"></ellipse>
<linearGradient id="SVGID_25_" gradientUnits="userSpaceOnUse" x1="474.1493" y1="149.7881" x2="452.3393" y2="273.3781" gradientTransform="matrix(1 0 0 1 -155.4737 -4.5152)">
	<stop offset="0" style="stop-color:#000000"></stop>
	<stop offset="1" style="stop-color:#000000;stop-opacity:0"></stop>
</linearGradient>
<path class="st30" d="M300.2,161.3c25.4-2.2,48.3,22.5,51.1,55.2c2.9,32.7-15.4,61.1-40.7,63.3c-25.4,2.2-48.3-22.5-51.1-55.2  C256.6,191.8,274.8,163.5,300.2,161.3z"></path>
<linearGradient id="SVGID_26_" gradientUnits="userSpaceOnUse" x1="418.415" y1="208.4961" x2="500.0754" y2="208.4961" gradientTransform="matrix(1 0 0 1 -155.47 -4.52)">
	<stop offset="0" style="stop-color:#183866"></stop>
	<stop offset="1" style="stop-color:#1A7FC1"></stop>
</linearGradient>
<path class="st31" d="M282.2,202.6c4.9,18.3,19.2,32.6,37.5,37.5c3.8,1.1,7.8,1.3,11.8,0.6c7.2-1.8,12.5-7.9,13.2-15.2  c0.4-5.9-2.2-11.4-4.7-16.7c-3.1-6.4-6.2-12.8-9.8-19c-3.3-5.5-7-10.9-11.8-15.1s-10.9-7.3-17.3-7.8c-8.9-0.6-17.4,3.7-24.8,8.6  c-2.2,1.4-4.2,3-6,4.8c-3.1,3.3-9,13.6-6.7,18.1C265.5,202.4,282.5,204,282.2,202.6z"></path>
<ellipse transform="matrix(0.5 -0.866 0.866 0.5 47.2485 437.0395)" class="st1" cx="402.1" cy="177.6" rx="59.5" ry="46.1"></ellipse>
<linearGradient id="SVGID_27_" gradientUnits="userSpaceOnUse" x1="465.6296" y1="183.2576" x2="590.0197" y2="181.6376" gradientTransform="matrix(1 0 0 1 -155.4757 -4.5095)">
	<stop offset="0" style="stop-color:#000000"></stop>
	<stop offset="1" style="stop-color:#000000;stop-opacity:0"></stop>
</linearGradient>
<path class="st32" d="M362.2,154.5c16.4-28.5,47.6-41.2,69.7-28.5s26.6,46.1,10.2,74.6s-47.6,41.2-69.7,28.5S345.7,183,362.2,154.5z  "></path>
<path class="st1" d="M397.8,92.8c-0.9,5.2-2.3,10.3-4.3,15.2c-9.5,24-30.3,39.2-51.3,35.6c-25.1-4.3-40.9-34.1-35.3-66.5  c1.2-7.2,3.5-14.2,6.7-20.7C324,35.6,343.2,23,362.5,26.3C387.6,30.6,403.4,60.4,397.8,92.8z"></path>
<linearGradient id="SVGID_28_" gradientUnits="userSpaceOnUse" x1="424.9329" y1="125.8293" x2="517.0229" y2="85.4394" gradientTransform="matrix(1 0 0 1 -155.47 -4.52)">
	<stop offset="0" style="stop-color:#000000"></stop>
	<stop offset="1" style="stop-color:#000000;stop-opacity:0"></stop>
</linearGradient>
<path class="st33" d="M397.8,92.8c-0.9,5.2-2.3,10.3-4.3,15.2c-9.5,24-30.3,39.2-51.3,35.6c-25.1-4.3-40.9-34.1-35.3-66.5  c1.2-7.2,3.5-14.2,6.7-20.7C324,35.6,343.2,23,362.5,26.3C387.6,30.6,403.4,60.4,397.8,92.8z"></path>
<linearGradient id="SVGID_29_" gradientUnits="userSpaceOnUse" x1="463.1422" y1="102.8791" x2="550.87" y2="102.8791" gradientTransform="matrix(1 0 0 1 -155.47 -4.52)">
	<stop offset="0" style="stop-color:#183866"></stop>
	<stop offset="1" style="stop-color:#1A7FC1"></stop>
</linearGradient>
<path class="st34" d="M395.4,106.1c-9.5,24-30.3,39.2-51.3,35.6c-25.1-4.3-40.9-34.1-35.3-66.5c1.2-7.2,3.5-14.2,6.8-20.7  c4.9-0.3,7.7,8,9.5,11.9c5.7,12.2,8.2,25.7,7.3,39.2c12.2-4.9,25.9-5,38.2-0.2c1.6,0.8,3.4,1.3,5.2,1.4c1.5-0.1,3.1-0.4,4.5-0.9  C385.2,104.7,390.4,104.7,395.4,106.1z"></path>
<path class="st1" d="M323.1,133.2c-2.1,28.4-19.3,51-40.4,55.3c-3.3,0.7-6.7,0.9-10,0.6c-25.4-1.9-44-30-41.6-62.7  s25-57.8,50.4-55.9c16.1,1.2,29.5,13,36.5,29.8l0,0c2.9,7.1,4.6,14.6,5.1,22.2C323.3,126,323.3,129.6,323.1,133.2z"></path>
<linearGradient id="SVGID_30_" gradientUnits="userSpaceOnUse" x1="492.8585" y1="191.2729" x2="420.1584" y2="122.6129" gradientTransform="matrix(1 0 0 1 -155.47 -4.52)">
	<stop offset="0" style="stop-color:#000000"></stop>
	<stop offset="1" style="stop-color:#000000;stop-opacity:0"></stop>
</linearGradient>
<path class="st35" d="M323.1,133.2c-2.1,28.4-19.3,51-40.4,55.3c-3.3,0.7-6.7,0.9-10,0.6c-25.4-1.9-44-30-41.6-62.7  s25-57.8,50.4-55.9c16.1,1.2,29.5,13,36.5,29.8l0,0c2.9,7.1,4.6,14.6,5.1,22.2C323.3,126,323.3,129.6,323.1,133.2z"></path>
<linearGradient id="SVGID_31_" gradientUnits="userSpaceOnUse" x1="434.146" y1="147.02" x2="480.5594" y2="147.02" gradientTransform="matrix(1 0 0 1 -155.47 -4.52)">
	<stop offset="0" style="stop-color:#183866"></stop>
	<stop offset="1" style="stop-color:#1A7FC1"></stop>
</linearGradient>
<path class="st36" d="M324.9,131.3c-2.1,28.4-19.3,51-40.4,55.3c-24.3-53.2,35.3-88.2,35.3-88.2l0,0l5.1,22.2  C325.2,124.2,325.1,127.8,324.9,131.3z"></path>
<ellipse transform="matrix(7.358578e-02 -0.9973 0.9973 7.358578e-02 136.5443 502.1844)" class="st1" cx="338.6" cy="177.6" rx="59.5" ry="46.1"></ellipse>
<linearGradient id="SVGID_32_" gradientUnits="userSpaceOnUse" x1="411.8668" y1="218.1784" x2="503.9468" y2="177.7883" gradientTransform="matrix(1 0 0 1 -155.5129 -4.5019)">
	<stop offset="0" style="stop-color:#000000"></stop>
	<stop offset="1" style="stop-color:#000000;stop-opacity:0"></stop>
</linearGradient>
<path class="st37" d="M292.6,174.2c2.4-32.8,25-57.8,50.4-55.9s44,30,41.6,62.7c-2.4,32.8-25,57.8-50.4,55.9  C308.8,235,290.1,206.9,292.6,174.2z"></path>
<path class="st9" d="M281,383c0,0,0.7,13.4,2.8,17.9c0,0-5.1-5.7-5.7-2c-1.4,9.2,6.5,10.5,6.7,10.5c2-0.6,3,8.5,1.5,8.9  c-3.6,0.7-9-1-9-1l-5.2-8.7L281,383z"></path>
<linearGradient id="SVGID_33_" gradientUnits="userSpaceOnUse" x1="434.55" y1="408.8614" x2="440.0415" y2="408.8614" gradientTransform="matrix(1 0 0 1 -155.47 -4.52)">
	<stop offset="0" style="stop-color:#183866"></stop>
	<stop offset="1" style="stop-color:#1A7FC1"></stop>
</linearGradient>
<path class="st38" d="M283.6,405.6c0,0-1.5-0.2-1.6-2.4s-0.8-2.5-1.6-2.6s-2.4,1.5-0.4,4.3s4.4,3.6,4.5,3S283.6,405.6,283.6,405.6z"></path>
<line class="st21" x1="321.2" y1="338.8" x2="381.3" y2="228.8"></line>
<path class="st1" d="M247.4,591.2c-27.8,1.2-50.2,2.2-50.2,2.2s-23-4.1-23-23.5V457.3h0.1c0.2,4.8,3.4,25.4,47.9,26.3l-1,89.9  C221.2,573.6,224.8,587.5,247.4,591.2z"></path>
<linearGradient id="SVGID_34_" gradientUnits="userSpaceOnUse" x1="503.9742" y1="507.8821" x2="280.6842" y2="541.7521" gradientTransform="matrix(1 0 0 1 -155.47 -4.52)">
	<stop offset="0" style="stop-color:#000000"></stop>
	<stop offset="1" style="stop-color:#000000;stop-opacity:0"></stop>
</linearGradient>
<path class="st39" d="M247.4,591.2c-27.8,1.2-50.2,2.2-50.2,2.2s-23-4.1-23-23.5V457.3h0.1c0.2,4.8,3.4,25.4,47.9,26.3l-1,89.9  C221.2,573.6,224.8,587.5,247.4,591.2z"></path>
<path class="st21" d="M174.2,459.3c0,0-13.5-100.6,64.9-124.3c109.2-33,133.5,65.5,131.1,107.1"></path>
<path class="st40" d="M135,87.5c-3.6,2.8-6.8,6-9.7,9.5c-1.9,2-3.4,4.3-4.6,6.8c-0.7,2.1-1.2,4.4-1.2,6.7c-0.2,1.6-0.2,3.2,0.3,4.8  c0.4,1.6,1.8,2.8,3.5,3c1.5,0.1,2.8-1,4-2l22.9-19.8c0.8-0.6,1.5-1.4,1.8-2.4c0.2-1,0-2.1-0.4-3c-1-2.6-2.2-7.5-5.5-7.7  C142.2,82.9,137.9,85.4,135,87.5z"></path>
<path class="st40" d="M82.1,33.5c-2.6,2.6-4.8,5.5-6.7,8.7c-1.3,1.8-2.3,3.8-2.9,5.9c-0.3,1.8-0.4,3.7-0.2,5.5  c0,1.3,0.2,2.6,0.8,3.8c0.5,1.2,1.8,2,3.1,2c1.2-0.3,2.2-1,2.9-2l16.1-18.5c0.6-0.6,1-1.3,1.2-2.1c0-0.8-0.2-1.6-0.7-2.3  c-1-2-2.6-5.8-5.3-5.6C87.4,29.1,84.2,31.5,82.1,33.5z"></path>
<path class="st40" d="M153.9,2.1c-2.7,1.2-5.3,2.8-7.7,4.6c-1.5,1-2.9,2.2-4,3.6c-0.8,1.3-1.4,2.7-1.8,4.1c-0.4,1-0.6,2.1-0.5,3.1  c0,1.1,0.7,2,1.8,2.4c1,0.1,2-0.1,2.9-0.7l17.7-9.2c0.6-0.3,1.2-0.7,1.5-1.3s0.3-1.3,0.2-2c-0.2-1.8-0.3-5.2-2.3-5.8  C159.3,0.3,156.1,1.2,153.9,2.1z"></path>
<path class="st40" d="M207.4,33c-3.4,2.7-6.4,5.7-9.1,9.1c-1.8,1.9-3.2,4.1-4.2,6.5c-0.7,2-1,4.2-1.1,6.3c-0.2,1.5-0.1,3.1,0.3,4.5  c0.5,1.5,1.8,2.6,3.3,2.8c1.4,0,2.7-1,3.7-1.9l21.5-19.1c0.8-0.6,1.4-1.4,1.7-2.3c0.1-1,0-1.9-0.5-2.8c-0.9-2.5-2.2-7.1-5.3-7.3  C214.2,28.7,210.1,31,207.4,33z"></path>
<path class="st40" d="M180.8,152.5c-2,3-3.6,6.2-4.8,9.6c-0.9,2-1.5,4.1-1.7,6.2c0,1.8,0.3,3.6,0.8,5.3c0.2,1.3,0.7,2.5,1.4,3.5  c0.8,1.1,2.1,1.6,3.4,1.3c1.1-0.5,2-1.4,2.5-2.5l12-20.7c0.5-0.7,0.7-1.5,0.8-2.3c-0.2-0.8-0.5-1.5-1.1-2.1  c-1.4-1.7-3.6-5.1-6.1-4.4C185.1,147.2,182.5,150.2,180.8,152.5z"></path>
<path class="st40" d="M252.8,87.9c-2.4,2.6-4.5,5.5-6.3,8.7c-1.2,1.8-2.1,3.8-2.7,5.9c-0.3,1.8-0.3,3.6-0.1,5.4  c0,1.3,0.3,2.5,0.8,3.7c0.6,1.2,1.8,1.9,3.1,1.8c1.2-0.3,2.2-1.1,2.8-2.1l15.3-18.5c0.6-0.6,1-1.3,1.1-2.1c0-0.8-0.3-1.6-0.7-2.3  c-1.1-1.9-2.7-5.6-5.3-5.3C257.9,83.5,254.8,85.9,252.8,87.9z"></path>
<path class="st40" d="M357.6,28.4c-3.6,0.2-7.1,0.8-10.6,1.9c-2.1,0.5-4.1,1.3-6,2.4c-1.4,1.1-2.7,2.4-3.8,3.8c-0.9,0.9-1.6,2-2,3.2  s0,2.6,0.9,3.5c1.1,0.6,2.3,0.8,3.5,0.5l23.8-2.7c0.8,0,1.6-0.3,2.3-0.7c0.5-0.6,0.9-1.3,1-2.2c0.5-2.1,1.9-5.9-0.1-7.5  C364.4,28.7,360.5,28.3,357.6,28.4z"></path>
<path class="st40" d="M325.4,126.7c-3.1,1.9-5.9,4.2-8.4,6.7c-1.6,1.4-3.1,3.1-4.1,4.9c-0.8,1.6-1.3,3.4-1.5,5.1  c-0.3,1.2-0.4,2.5-0.2,3.8c0.2,1.3,1.2,2.3,2.5,2.6c1.2,0,2.4-0.4,3.3-1.2l19.6-13.8c0.7-0.4,1.3-1,1.6-1.7c0.2-0.8,0.2-1.6-0.1-2.4  c-0.5-2.1-1.1-6.1-3.7-6.5C331.5,123.8,327.9,125.3,325.4,126.7z"></path>
<path class="st40" d="M417.8,125.1c-3.6-0.4-7.2-0.3-10.7,0.2c-2.2,0.1-4.3,0.6-6.3,1.4c-1.6,0.8-3.1,1.9-4.3,3.1  c-1,0.8-1.9,1.8-2.5,2.9c-0.6,1.2-0.5,2.6,0.4,3.6c1,0.7,2.2,1.1,3.4,1l24,1.1c1.6,0.4,3.3-0.6,3.7-2.2v-0.1c0.9-2,2.8-5.5,1.1-7.4  C424.4,126.5,420.6,125.5,417.8,125.1z"></path>
<path class="st40" d="M131.4,219.5c0.4,3.6,1.3,7.1,2.5,10.4c0.9,3.9,3.3,7.3,6.8,9.4c1,0.8,2.1,1.4,3.4,1.7  c1.3,0.3,2.6-0.1,3.4-1.2c0.5-1.1,0.6-2.3,0.2-3.5c-1.4-7.9-2.8-15.7-4.2-23.6c-0.1-0.8-0.4-1.6-0.9-2.2c-0.6-0.5-1.4-0.8-2.2-0.9  c-2.2-0.4-6-1.5-7.5,0.6C131.2,212.8,131.1,216.7,131.4,219.5z"></path>
<path class="st40" d="M429.5,28.1c-3.6,0.3-7.1,1-10.5,2.1c-2.1,0.5-4.1,1.4-5.9,2.5c-1.4,1.1-2.7,2.4-3.7,3.9  c-0.8,1-1.5,2.1-1.9,3.3c-0.4,1.3,0,2.6,1,3.5c1.1,0.6,2.3,0.7,3.5,0.4l23.8-3.4c0.8,0,1.6-0.3,2.2-0.8c0.5-0.6,0.9-1.4,1-2.2  c0.5-2.1,1.8-6-0.3-7.5C436.3,28.2,432.4,28,429.5,28.1z"></path>
<path class="st40" d="M267.8,5.9c-2.5,1.9-4.7,4.2-6.6,6.7c-1.3,1.4-2.3,3-3.1,4.7c-0.5,1.5-0.8,3.1-0.8,4.6  c-0.2,1.1-0.1,2.2,0.2,3.3c0.3,1.1,1.3,1.9,2.4,2c1.1-0.1,2-0.6,2.7-1.4l15.7-14c0.6-0.4,1-1,1.3-1.7c0.1-0.7,0-1.4-0.3-2.1  c-0.7-1.8-1.6-5.2-3.9-5.3C272.8,2.7,269.8,4.4,267.8,5.9z"></path>
<g>
	<g>
		<defs>
			<path id="SVGID_35_" d="M276.1,543.2l6.6-18.5l6.1,17.8L276.1,543.2z M331.8,511.6l-9.7,29.1l-5.8-21.8l-8.2,0.5l-7.6,27.2     l-1.7-4.5l-10.4-27.9l-10.8,0.6L266.1,544l-6.6,0.4l-2.9,8l6.4-0.4l-3.6,9.2l10.6-0.6v-0.1l0,0l3.3-9.1l9.8-0.6l8.5-0.5l3,8.7     l0,0v0.1l2.6-0.1l7.9-0.5l0,0l6.9-24.2l6.2,23.4l7.8-0.4l3.9-10.8l-5.8,0.3l2.2-6l5.8-0.3l10.6-29.3l0,0L331.8,511.6z"></path>
		</defs>
		<use xlink:href="#SVGID_35_" style="overflow:visible;fill:#FFFFFF;"></use>
		<clipPath id="SVGID_36_">
			<use xlink:href="#SVGID_35_" style="overflow:visible;"></use>
		</clipPath>
		<g class="st41">
			<g>
				<defs>
					<polygon id="SVGID_37_" points="-594.1,1452.4 411.3,1394.8 427.8,423.6 -577.6,481.2      "></polygon>
				</defs>
				<use xlink:href="#SVGID_37_" style="overflow:visible;fill:#FFFFFF;"></use>
				<clipPath id="SVGID_38_">
					<use xlink:href="#SVGID_37_" style="overflow:visible;"></use>
				</clipPath>
			</g>
		</g>
	</g>
</g>
<g id="XMLID_38_">
	<path id="XMLID_44_" class="st42" d="M440.3,316.2L440.3,316.2c-10.4-4-15.7-15.7-11.7-26.1l0,0c4-10.4,15.7-15.7,26.1-11.7l0,0   c10.4,4,15.7,15.7,11.7,26.1l0,0C462.4,314.9,450.7,320.1,440.3,316.2z"></path>
	<path id="XMLID_2_" class="st43" d="M444.4,309.7h5v-12.6h3.5l0.4-4.2h-3.9c0,0,0-1.6,0-2.4c0-1,0.2-1.4,1.2-1.4c0.8,0,2.7,0,2.7,0   v-4.4c0,0-2.9,0-3.5,0c-3.7,0-5.4,1.6-5.4,4.8c0,2.7,0,3.4,0,3.4h-2.6v4.3h2.6V309.7z"></path>
</g>
<g id="XMLID_24_">
	<path id="XMLID_26_" class="st42" d="M76.5,377.7L76.5,377.7c-27.4,0-49.6-22.2-49.6-49.6l0,0c0-27.4,22.2-49.6,49.6-49.6l0,0   c27.4,0,49.6,22.2,49.6,49.6l0,0C126.1,355.5,103.9,377.7,76.5,377.7z"></path>
	<path id="XMLID_25_" class="st43" d="M50.1,344.7c4.8,3.1,10.5,4.9,16.6,4.9c20.1,0,31.5-17,30.8-32.3c2.1-1.5,4-3.4,5.4-5.6   c-1.9,0.9-4,1.4-6.2,1.7c2.2-1.3,4-3.5,4.8-6c-2.1,1.2-4.4,2.1-6.9,2.6c-2-2.1-4.8-3.4-7.9-3.4c-7,0-12.1,6.5-10.6,13.3   c-9-0.5-17-4.8-22.3-11.3c-2.8,4.9-1.5,11.3,3.4,14.5c-1.8-0.1-3.5-0.5-4.9-1.4c-0.1,5,3.5,9.7,8.7,10.8c-1.5,0.4-3.2,0.5-4.9,0.2   c1.4,4.3,5.4,7.4,10.1,7.5C61.6,343.8,55.9,345.4,50.1,344.7z"></path>
</g>
<g id="XMLID_4_">
	<path id="XMLID_21_" class="st42" d="M481.5,501.8L481.5,501.8c-23.5,5.6-47.2-8.9-52.8-32.5l0,0c-5.6-23.5,8.9-47.2,32.5-52.8h0   c23.5-5.6,47.2,8.9,52.8,32.5l0,0C519.6,472.5,505,496.2,481.5,501.8z"></path>
	<g id="XMLID_5_">
		<path id="XMLID_14_" class="st43" d="M466.8,440c6.2-1.5,7-1.6,9.5-2.1c2.3-0.4,3.6-0.4,4.5-0.2c1.2,0.2,2.1,0.5,3.1,1.1    c1,0.6,1.7,1.3,2.4,2.3c0.5,0.7,1.2,1.9,1.8,4.1c0.7,2.4,0.9,3.2,2.4,9.4c1.5,6.2,1.6,7,2.1,9.5c0.4,2.3,0.4,3.6,0.2,4.5    c-0.2,1.2-0.5,2.1-1.1,3.1c-0.6,1-1.3,1.7-2.3,2.4c-0.7,0.5-1.9,1.2-4.1,1.8c-2.4,0.7-3.2,0.9-9.4,2.4c-6.2,1.5-7,1.6-9.5,2.1    c-2.3,0.4-3.6,0.4-4.5,0.2c-1.2-0.2-2.1-0.5-3.1-1.1c-1-0.6-1.7-1.3-2.4-2.3c-0.5-0.7-1.2-1.9-1.8-4.1c-0.7-2.4-0.9-3.2-2.4-9.4    c-1.5-6.2-1.6-7-2.1-9.5c-0.4-2.3-0.4-3.6-0.2-4.5c0.2-1.2,0.5-2.1,1.1-3.1c0.6-1,1.3-1.7,2.3-2.4c0.7-0.5,1.9-1.2,4.1-1.8    C459.8,441.7,460.5,441.5,466.8,440 M465.8,435.8c-6.3,1.5-7.1,1.7-9.6,2.4c-2.5,0.7-4.1,1.5-5.4,2.4c-1.4,1-2.5,2.1-3.5,3.7    c-1,1.6-1.5,3.1-1.7,4.8c-0.2,1.6-0.2,3.4,0.3,5.9c0.5,2.5,0.6,3.3,2.2,9.7c1.5,6.3,1.7,7.1,2.4,9.6c0.7,2.5,1.5,4.1,2.4,5.4    c1,1.4,2.1,2.5,3.7,3.5c1.6,1,3.1,1.5,4.8,1.7c1.6,0.2,3.4,0.2,5.9-0.3c2.5-0.5,3.3-0.6,9.7-2.2c6.3-1.5,7.1-1.7,9.6-2.4    c2.5-0.7,4.1-1.5,5.4-2.4c1.4-1,2.5-2.1,3.5-3.7c1-1.6,1.5-3.1,1.7-4.8c0.2-1.6,0.2-3.4-0.3-5.9c-0.5-2.5-0.6-3.3-2.2-9.7    c-1.5-6.3-1.7-7.1-2.4-9.6c-0.7-2.5-1.5-4.1-2.4-5.4c-1-1.4-2.1-2.5-3.7-3.5c-1.6-1-3.1-1.5-4.8-1.7c-1.6-0.2-3.4-0.2-5.9,0.3    C472.9,434.1,472.1,434.3,465.8,435.8"></path>
		<path id="XMLID_8_" class="st43" d="M468.5,447.2c-6.6,1.6-10.7,8.2-9.1,14.9c1.6,6.6,8.2,10.7,14.9,9.1    c6.6-1.6,10.7-8.2,9.1-14.9C481.7,449.7,475.1,445.6,468.5,447.2 M473.2,466.9c-4.3,1-8.6-1.6-9.6-5.9c-1-4.3,1.6-8.6,5.9-9.6    c4.3-1,8.6,1.6,9.6,5.9C480.1,461.6,477.5,465.9,473.2,466.9"></path>
		<path id="XMLID_7_" class="st43" d="M483.6,443c0.4,1.5-0.6,3.1-2.1,3.5c-1.5,0.4-3.1-0.6-3.5-2.1c-0.4-1.5,0.6-3.1,2.1-3.5    C481.7,440.5,483.3,441.5,483.6,443"></path>
	</g>
</g>
</svg>
