<?xml version="1.0" encoding="UTF-8"?>
<!-- Generator: Adobe Illustrator 24.1.0, SVG Export Plug-In . SVG Version: 6.00 Build 0)  -->
<svg xmlns="http://www.w3.org/2000/svg" xmlns:xlink="http://www.w3.org/1999/xlink" id="Layer_1" x="0px" y="0px" viewBox="0 0 415.6 380.2" style="enable-background:new 0 0 415.6 380.2;" xml:space="preserve">
<style type="text/css">
	.st0{fill:#FFFFFF;}
	.st1{fill:#E92733;}
	.st2{fill:#2E2E3F;}
	.st3{fill:#F3BD8F;}
	.st4{fill:url(#SVGID_1_);}
	.st5{fill:url(#SVGID_2_);}
	.st6{fill:url(#SVGID_3_);}
	.st7{fill:url(#SVGID_4_);}
	.st8{fill:url(#SVGID_5_);}
	.st9{fill:url(#SVGID_6_);}
	.st10{fill:url(#SVGID_7_);}
	.st11{fill:url(#SVGID_8_);}
	.st12{fill:url(#SVGID_9_);}
	.st13{opacity:0.1;fill:#E92733;enable-background:new    ;}
	.st14{fill:#EBEBEB;}
	.st15{fill:#FFACB3;}
	.st16{opacity:0.3;}
	.st17{fill:#E62536;}
	.st18{fill:#E8505B;}
</style>

<path class="st0" d="M43.6,251.9c4.1,1.1,8.9,2.4,12.4,0c2.2-1.5,3.3-4.1,5.3-5.9c2.8-2.5,7.1-2.9,10.8-1.9s6.9,3.2,10,5.3  c3.2-4.5,10-4.8,15-2.5s8.7,6.6,12.7,10.4c1.3,1.4,2.9,2.6,4.7,3.3c1.6,0.4,3.3,0.5,5,0.4c6.6,0.1,13.1,2.1,18.5,5.8  c1.4,0.8,2.5,2,3.2,3.3c1.3,3-0.6,6.4-3.1,8.5c-7,6.1-17.4,6.1-26.7,5.8l-69.3-2.6c-5.3-0.2-10.6-0.4-15.7-1.8  c-9.1-2.5-16.7-12.1-10.7-21.4C21.5,249.6,34.6,249.4,43.6,251.9z"></path>
<path class="st1" d="M109.3,146.5v230.6c-2-0.6-4.1-1.3-6.1-2.1V146.5H109.3z"></path>
<path class="st1" d="M140.7,146.5v233.7c-2,0-4.1,0-6.1,0V146.5H140.7z"></path>
<rect x="105.8" y="154.3" class="st1" width="31.2" height="4.9"></rect>
<rect x="105.8" y="172.5" class="st1" width="31.2" height="4.9"></rect>
<rect x="105.8" y="190.6" class="st1" width="31.2" height="4.9"></rect>
<rect x="105.8" y="208.8" class="st1" width="31.2" height="4.9"></rect>
<rect x="105.8" y="227" class="st1" width="31.2" height="4.9"></rect>
<rect x="105.8" y="245.1" class="st1" width="31.2" height="4.9"></rect>
<rect x="105.8" y="263.3" class="st1" width="31.2" height="4.9"></rect>
<rect x="105.8" y="281.4" class="st1" width="31.2" height="4.9"></rect>
<rect x="105.8" y="299.6" class="st1" width="31.2" height="4.9"></rect>
<rect x="105.8" y="317.8" class="st1" width="31.2" height="4.9"></rect>
<rect x="105.8" y="335.9" class="st1" width="31.2" height="4.9"></rect>
<rect x="105.8" y="354.1" class="st1" width="31.2" height="4.9"></rect>
<path class="st1" d="M137,372.2v4.9h-27.5h-0.2c-1.2-0.4-2.3-0.7-3.5-1.1v-3.7L137,372.2z"></path>
<path class="st1" d="M288.8,257.3v118.6l-3.5,0.2l-2.6,0.1V257.3H288.8z"></path>
<path class="st1" d="M320.1,257.3v114.3c-1.2,0.4-2.5,0.7-3.7,1c-0.8,0.2-1.6,0.4-2.4,0.5V257.3H320.1z"></path>
<rect x="285.3" y="265" class="st1" width="31.2" height="4.9"></rect>
<rect x="285.3" y="283.2" class="st1" width="31.2" height="4.9"></rect>
<rect x="285.3" y="301.3" class="st1" width="31.2" height="4.9"></rect>
<rect x="285.3" y="319.5" class="st1" width="31.2" height="4.9"></rect>
<rect x="285.3" y="336.9" class="st1" width="31.2" height="4.9"></rect>
<rect x="285.3" y="354.4" class="st1" width="31.2" height="4.9"></rect>
<path class="st1" d="M316.4,371.8v0.9c-0.8,0.2-1.6,0.4-2.4,0.5c-6.8,1.3-13.8,2.1-20.7,2.4l-4.5,0.3l-3.5,0.2v-4.3L316.4,371.8z"></path>
<rect x="194.6" y="47.1" class="st1" width="6.1" height="331.6"></rect>
<rect x="226" y="47.1" class="st1" width="6.1" height="331.6"></rect>
<rect x="197.2" y="55" class="st1" width="31.2" height="4.9"></rect>
<rect x="197.2" y="73.1" class="st1" width="31.2" height="4.9"></rect>
<rect x="197.2" y="91.3" class="st1" width="31.2" height="4.9"></rect>
<rect x="197.2" y="109.4" class="st1" width="31.2" height="4.9"></rect>
<rect x="197.2" y="127.6" class="st1" width="31.2" height="4.9"></rect>
<rect x="197.2" y="145.8" class="st1" width="31.2" height="4.9"></rect>
<rect x="197.2" y="163.9" class="st1" width="31.2" height="4.9"></rect>
<rect x="197.2" y="182.1" class="st1" width="31.2" height="4.9"></rect>
<rect x="197.2" y="200.2" class="st1" width="31.2" height="4.9"></rect>
<rect x="197.2" y="218.4" class="st1" width="31.2" height="4.9"></rect>
<rect x="197.2" y="236.6" class="st1" width="31.2" height="4.9"></rect>
<rect x="197.2" y="254.7" class="st1" width="31.2" height="4.9"></rect>
<rect x="197.2" y="272.9" class="st1" width="31.2" height="4.9"></rect>
<rect x="197.2" y="290.6" class="st1" width="31.2" height="4.9"></rect>
<rect x="197.2" y="308.3" class="st1" width="31.2" height="4.9"></rect>
<rect x="197.2" y="326" class="st1" width="31.2" height="4.9"></rect>
<rect x="197.2" y="343.8" class="st1" width="31.2" height="4.9"></rect>
<rect x="197.2" y="361.5" class="st1" width="31.2" height="4.9"></rect>
<path class="st2" d="M117.3,184.7c-4,2.8-1.2,18-0.4,20.4c0.2,0.3,0.5,0.6,0.9,0.8c1.4,0.4,2.3-0.1,2.2-1.6  c-0.2-2.8-0.7-5.5-0.4-8.3c0-0.7,0.3-1.3,0.8-1.8c0.3-0.1,0.6-0.2,0.9-0.2c1-0.1,1.7-0.2,2.3,0.7c0.7,1.2,1.1,2.6,1.1,4.1  c0.1,1.9,0.4,3.7,0.6,5.6c0.5,3.7,0.8,7.5,0.8,11.2c-0.1,1.8-0.2,3.7,0.6,5.2c0.3,0.6,0.8,1.1,1.5,1.3c2.3,0.3,2-8.1,2.1-9.5  c0.2-4.1,0.2-8.1,0.3-12.2c0-2.7,0-5.4,0.2-8.2c0.1-0.4,0-0.8-0.1-1.2c-0.1-0.4-1.1-0.3-1.5-0.6c-1.4-1.1-3-2.2-4.5-3.1  C123.4,186.6,118.7,183.7,117.3,184.7z"></path>
<path class="st1" d="M126.7,168.2c2,0.1,4.1,0.9,5,2.7c0.3,0.7,0.5,1.4,0.5,2.2c0.4,3.7,0.5,7.3,0.5,11c0,1,0,1.9-0.1,2.9  c-0.1,0.8-0.3,1.5-0.6,2.2c-0.3,0.9-0.9,1.7-1.7,2.2c-1.1,0.5-2.3,0.7-3.4,0.5c-1.2,0-2.3-0.2-3.4-0.5c-1.1-0.4-2-1.2-2.4-2.3  c-0.2-0.7-0.2-1.4-0.2-2.1l0.5-10c0.1-1.7,0.1-3.4,0.2-5.1c0-1.1,0.7-5.2,1.8-5.8S125.5,168.1,126.7,168.2z"></path>
<path class="st3" d="M119.2,153.2c-0.1-0.4,0-0.7,0.2-1c0.3-0.2,0.6-0.2,0.9-0.1l1.3,0.2c0.1,0,0.2,0,0.3,0.1  c0.2,0.1,0.3,0.5,0.3,0.7s0.2,0.6,0.4,0.6c0.1,0,0.2,0,0.3,0c0.1,0.1,0.2,0.2,0.2,0.3c0,0.2-0.2,0.5-0.4,0.6  c-0.2,0.1-0.4,0.2-0.6,0.4c-0.3,0.2-0.6,0.6-0.7,0.9c0,0.2-0.1,0.5-0.2,0.7c-0.2,0.3-0.6,0.5-1,0.4c-0.7-0.1-0.9-0.6-0.9-1.2  C119.4,155,119.3,154.1,119.2,153.2z"></path>
<path class="st1" d="M123.9,165.4c-0.3-0.3-0.5-0.6-0.6-1c-0.1-0.4-0.2-0.7-0.2-1.1l-0.4-4.6c-0.1-0.7-0.1-3.1-0.5-3.5  c-0.4-0.3-0.9-0.5-1.5-0.4h-1.3c-0.2,0-0.4,0.1-0.6,0.2c-0.2,0.9-0.3,1.8-0.3,2.8c0,2.1,0,4.3,0,6.4c0,1.3,0.1,2.6,0.4,3.8  c0.4,1.2,0.9,2.3,1.5,3.3c0.6,1,1.2,2,1.8,3c0.2,0.4,0.6,0.8,0.9,0.7c0.2-0.1,0.4-0.2,0.5-0.4c1.2-1.6,1.8-3.4,1.9-5.3  c0.1-0.5,0.1-1-0.1-1.5C125,167,124.5,166.2,123.9,165.4z"></path>
<path class="st3" d="M140.2,170.9c-0.2,0-0.3-0.2-0.5-0.2s-0.4,0.3-0.5,0.6s0,0.6,0,0.9c-0.1,0.5-0.2,0.9-0.3,1.4  c-0.1,0.4-0.1,0.9,0,1.4c0.1,0.4,0.5,0.6,0.9,0.5c0.3-0.1,0.4-0.4,0.6-0.7c0.4-0.6,1.2-1,1.3-1.7c0.1-0.5-0.2-1-0.2-1.5  c0-0.2,0-0.3,0-0.5C141.4,170.2,140.6,170.9,140.2,170.9z"></path>
<path class="st1" d="M131.8,170.7c1.9,2,3.4,4.3,4.6,6.8c1.1-0.9,1.2-2.4,1.9-3.6c0.1-0.3,0.4-0.6,0.7-0.6c0.3,0,0.5,0.2,0.7,0.4  c0.8,1,1.3,2.4,1.2,3.7c-0.1,1.3-0.4,2.6-1,3.8c-0.4,0.9-0.9,1.7-1.5,2.4c-0.2,0.2-0.5,0.4-0.8,0.5c-0.4,0.1-0.7,0-1.1-0.1  c-0.5-0.3-1-0.6-1.4-1c-1.2-1.1-2.4-2.2-3.4-3.5c-1.6-1.8-3-3.9-3.2-6.4c-0.2-1.1,0.2-2.3,1-3.1  C130.3,169.2,131.1,170.1,131.8,170.7z"></path>
<linearGradient id="SVGID_1_" gradientUnits="userSpaceOnUse" x1="129.0724" y1="169.0523" x2="145.2624" y2="220.7423" gradientTransform="matrix(1 0 0 -1 -10.23 370.7556)">
	<stop offset="1.000000e-02" style="stop-color:#000000"></stop>
	<stop offset="0.13" style="stop-color:#000000;stop-opacity:0.69"></stop>
	<stop offset="1" style="stop-color:#000000;stop-opacity:0"></stop>
</linearGradient>
<path class="st4" d="M140.8,177.3c-0.1,1.3-0.4,2.6-1,3.8c-0.4,0.9-0.9,1.7-1.5,2.4c-0.2,0.2-0.5,0.4-0.8,0.5  c-0.4,0.1-0.7,0-1.1-0.1c-0.5-0.3-1-0.6-1.4-1c-0.8-0.7-1.6-1.4-2.3-2.2c0,1.1,0,2.3,0,3.4c0,1,0,1.9-0.1,2.9  c-0.1,0.8-0.3,1.5-0.6,2.2c-0.3,0.9-0.9,1.7-1.6,2.2c-0.5,0.3-1,0.4-1.5,0.5c-0.6,0.1-1.3,0.1-1.9,0c-1.2,0-2.3-0.2-3.4-0.5  c-1.1-0.4-2-1.2-2.4-2.3c-0.2-0.7-0.2-1.4-0.2-2.1c0.2-3.3,0.3-6.7,0.5-10l0.2-3.9l-1-1.7c-0.6-1-1.1-2.1-1.5-3.3  c-0.3-1.3-0.4-2.5-0.4-3.8c-0.1-2.1-0.1-4.3,0-6.4c0-0.9,0.1-1.9,0.3-2.8c0.2-0.1,0.4-0.2,0.6-0.2l1.3-0.1h0.5c0.4,0,0.7,0.1,1,0.4  l0,0c0.4,0.4,0.4,2.9,0.5,3.5l0.4,4.6c0,0.4,0.1,0.7,0.2,1.1c0.1,0.4,0.3,0.7,0.6,1c0.4,0.4,0.7,0.9,1,1.3c0.6,0.6,1.2,1.4,1.8,1.4  c1.7,0,3.3,0.7,4.4,1.9c0.2,0.2,0.4,0.4,0.6,0.6c1.8,2,3.4,4.3,4.6,6.7c1.1-0.9,1.2-2.4,1.9-3.6c0.2-0.3,0.4-0.6,0.7-0.6  c0.3,0,0.5,0.2,0.7,0.4C140.5,174.7,140.9,176,140.8,177.3z"></path>
<linearGradient id="SVGID_2_" gradientUnits="userSpaceOnUse" x1="133.7969" y1="192.1771" x2="151.4369" y2="228.5871" gradientTransform="matrix(1 0 0 -1 -10.23 370.7556)">
	<stop offset="2.000000e-02" style="stop-color:#FFFFFF;stop-opacity:0"></stop>
	<stop offset="0.58" style="stop-color:#FFFFFF;stop-opacity:0.39"></stop>
	<stop offset="0.68" style="stop-color:#FFFFFF;stop-opacity:0.68"></stop>
	<stop offset="1" style="stop-color:#FFFFFF"></stop>
</linearGradient>
<path class="st5" d="M139.6,173.6c-2.1,7.2-2.7,5.8-2.7,5.8s-1.6-0.6-4.1-4.8s-4.8-4.2-7-5s-3.5-3.5-4-4.8s-1.1-10-1.1-10h0.5  c0.4,0,0.7,0.2,1,0.4l0,0c0.4,0.4,0.4,2.9,0.5,3.5l0.4,4.6c0,0.4,0.1,0.7,0.2,1.1c0.1,0.4,0.3,0.7,0.6,1c0.4,0.4,0.7,0.9,1,1.3  c0.6,0.6,1.2,1.4,1.8,1.4c1.7,0,3.3,0.7,4.4,1.9c0.2,0.2,0.4,0.4,0.6,0.6c1.8,2,3.4,4.3,4.6,6.7c1.1-0.9,1.2-2.4,1.9-3.6  c0.2-0.3,0.4-0.6,0.7-0.6C139.2,173.2,139.5,173.4,139.6,173.6z"></path>
<linearGradient id="SVGID_3_" gradientUnits="userSpaceOnUse" x1="128.4599" y1="189.0352" x2="155.0999" y2="178.9252" gradientTransform="matrix(1 0 0 -1 -10.23 370.7556)">
	<stop offset="1.000000e-02" style="stop-color:#000000"></stop>
	<stop offset="0.13" style="stop-color:#000000;stop-opacity:0.69"></stop>
	<stop offset="1" style="stop-color:#000000;stop-opacity:0"></stop>
</linearGradient>
<path class="st6" d="M132.6,186.9c-0.1,0.8-0.3,1.5-0.6,2.2c-0.3,0.9-0.9,1.7-1.6,2.2c-0.5,0.3-1,0.4-1.5,0.5  c-3.2,0.3-4.6,0.1,0.5-2.2c2-0.9,2-10.2,2-10.2l1.3,1.2c0,1.1,0,2.3,0,3.4C132.7,185,132.6,186,132.6,186.9z"></path>
<path class="st3" d="M125.9,165.9c0.4-1.4,0.6-3.1,1.6-4.2c0.1-0.1,0.3-0.3,0.5-0.3c0.1,0,0.3,0,0.4,0l2.3,0.5  c0.2,0,0.3,0.1,0.5,0.2c0.3,0.2,0.6,0.6,0.6,0.9c0.3,0.8,0.4,1.7,0.4,2.6c0,0.6-0.1,1.2-0.5,1.7c-0.7,0.8-2.1,0.6-2.7,1.5  c-0.3,0.4-0.3,0.9-0.7,1.1c-0.2,0.1-0.3,0.1-0.5,0.1c-0.7,0.1-1.3,0-1.9-0.3c-0.5-0.3-0.5-1-0.4-1.7S125.7,166.6,125.9,165.9z"></path>
<path class="st2" d="M127.8,159.7c-0.8,0.1-1.5,0.5-2,1.1c-0.5,0.9-0.7,1.9-0.5,2.9c0.2,1,0.2,2-0.1,3c-0.1,0.2-0.1,0.4,0,0.6  s0.4,0.1,0.6,0.1c0,0.2,0.2,0.4,0.4,0.5c0.2,0.1,0.5,0,0.6-0.2c0,0.3,0.4,0.4,0.6,0.3c0.2-0.2,0.4-0.4,0.5-0.7l0.6-1.2  c0-0.1,0.1-0.1,0.1-0.2c0-0.1-0.1-0.2-0.1-0.3c-0.2-0.3-0.3-0.6-0.3-1c0-0.2,0.1-0.4,0.3-0.5c0.2-0.1,0.4,0,0.6,0.2  c0.1,0.2,0.2,0.4,0.2,0.6l0.1,1c0,0.1,0.1,0.3,0.2,0.2s0.1-0.1,0.1-0.1c0.1-0.8,0.1-1.6,0.1-2.4c0,0,0-0.1,0-0.1  c0,0,0.1-0.1,0.2-0.1c0.6,0,1.2-0.2,1.8-0.5c0.5-0.3,0.9-0.8,1-1.4c0-0.3-0.1-0.6-0.3-0.8c-0.1,0-0.1-0.1-0.2-0.1  c-0.1-0.1-0.1-0.1-0.1-0.2c-0.1-0.3-0.2-0.5-0.3-0.8c-0.4-0.6-1-0.6-1.6-0.3C129.3,159.6,128.5,159.7,127.8,159.7z"></path>
<path class="st0" d="M117.5,203.3c-0.2,0.5-0.3,1.1-0.3,1.6c-0.1,1.3,0.1,2.6,0.4,3.8c0.1,0.4,0.4,0.8,0.7,1c0.4,0.1,0.8,0,1.1-0.3  c0.7-0.8,0.9-1.9,0.7-2.9c-0.1-1-0.2-2-0.4-3c0-0.3-0.1-0.6-0.3-0.8C118.9,201.9,117.8,202.7,117.5,203.3z"></path>
<path class="st2" d="M118.9,206.1c-0.8,0.2-1.5,0.9-1.8,1.6c-0.1,0.4-0.1,0.8-0.2,1.2c-0.1,0.4-0.3,0.8-0.6,1.1  c-0.2,0.4-0.4,0.8-0.5,1.3c-0.1,0.4-0.1,0.9,0,1.3c0.1,0.4,0.4,0.8,0.9,0.9c0.2,0,0.4,0,0.6,0c1-0.3,1.8-1,2.3-1.9  c0.5-0.9,0.8-1.9,0.9-2.9c0.2-0.8,0.3-1.6,0.1-2.4C120.3,205.7,119.4,205.9,118.9,206.1z"></path>
<path class="st0" d="M127.6,218.8c-0.3,0.1-0.5,0.3-0.7,0.5c-0.2,0.4-0.3,0.9-0.2,1.3l0.2,2.1c0,0.4,0.1,0.8,0.4,1.1  c0.7,0.4,1.7,0.2,2.2-0.5c0.1-0.2,0.1-0.4,0.1-0.6c0-1,0-2.1-0.1-3.1c-0.1-0.4,0-0.9-0.4-1C128.5,218.6,128,218.6,127.6,218.8z"></path>
<path class="st2" d="M126.6,224.1c0-0.4,0.2-0.8,0.6-1c0.2-0.1,0.4-0.1,0.5-0.1l1.3-0.1c0.1,0,0.2,0,0.3,0c0.1,0,0.2,0.1,0.3,0.2  c0.3,0.7,0.4,1.4,0.4,2.1c0.1,0.6,0.3,1.1,0.5,1.6c0.2,0.5,0.3,1.1,0.2,1.7c0,0.1-0.1,0.3-0.2,0.4c-0.2,0.2-0.4,0.3-0.7,0.4  c-0.3,0-0.6,0-0.8-0.1c-0.2,0-0.5-0.1-0.7-0.2c-0.2-0.1-0.4-0.3-0.5-0.5c-0.3-0.3-0.5-0.6-0.7-1c-0.1-0.3-0.2-0.7-0.3-1.1  c-0.1-0.9-0.2-1.9-0.1-2.8"></path>
<path class="st2" d="M306.1,296.2c3.9,2.8,1.2,17.8,0.5,20.2c-0.2,0.3-0.5,0.6-0.9,0.8c-1.3,0.4-2.3-0.1-2.2-1.6  c0.2-2.7,0.7-5.5,0.4-8.2c0-0.7-0.3-1.3-0.8-1.8c-0.3-0.1-0.6-0.2-0.9-0.2c-1-0.1-1.7-0.2-2.3,0.7c-0.7,1.2-1.1,2.6-1.1,4  c-0.1,1.9-0.3,3.7-0.6,5.5c-0.5,3.7-0.8,7.4-0.8,11.1c0,1.8,0.2,3.6-0.6,5.2c-0.3,0.6-0.8,1.1-1.5,1.3c-2.3,0.3-2-8-2-9.4  c-0.2-4-0.2-8-0.3-12c0-2.7,0-5.4-0.2-8.1c0-0.4,0-0.8,0.1-1.2c0.1-0.4,1.1-0.3,1.5-0.6c1.4-1.1,2.9-2.1,4.5-3  C300,298.2,304.8,295.2,306.1,296.2z"></path>
<path class="st1" d="M296.8,279.9c-2,0.1-4.1,0.9-4.9,2.6c-0.3,0.7-0.5,1.4-0.5,2.2c-0.4,3.6-0.5,7.2-0.5,10.9c0,1,0,1.9,0.1,2.9  c0.1,0.8,0.3,1.5,0.6,2.2c0.3,0.9,0.9,1.7,1.6,2.2c1.1,0.5,2.2,0.7,3.4,0.5c1.2,0,2.3-0.2,3.4-0.5c1.1-0.4,2-1.2,2.4-2.3  c0.2-0.7,0.2-1.4,0.2-2.1l-0.5-9.9l-0.2-5c0-1-0.7-5.2-1.8-5.8S297.9,279.9,296.8,279.9z"></path>
<path class="st3" d="M304.2,265.1c0.1-0.3,0-0.7-0.2-1c-0.3-0.2-0.6-0.2-0.9-0.1l-1.3,0.2c-0.1,0-0.2,0-0.3,0.1  c-0.2,0.1-0.2,0.5-0.3,0.7s-0.2,0.6-0.4,0.6c-0.1,0-0.2,0-0.3,0c-0.1,0-0.2,0.2-0.2,0.3c0,0.2,0.1,0.4,0.3,0.6  c0.2,0.1,0.4,0.2,0.6,0.4c0.3,0.2,0.6,0.6,0.7,1c0,0.2,0.1,0.5,0.2,0.7c0.2,0.3,0.6,0.5,1,0.4c0.7-0.1,0.9-0.6,0.9-1.2  C304,266.8,304.1,265.9,304.2,265.1z"></path>
<path class="st1" d="M299.5,277.1c0.3-0.3,0.5-0.6,0.6-1c0.1-0.3,0.2-0.7,0.2-1.1l0.4-4.6c0-0.6,0.1-3,0.5-3.5  c0.4-0.3,0.9-0.5,1.5-0.4l1.3,0c0.2,0,0.4,0,0.6,0.2c0.2,0.9,0.4,1.8,0.3,2.7c0,2.1,0,4.2,0,6.4c0,1.3-0.1,2.5-0.4,3.8  c-0.4,1.1-0.9,2.2-1.5,3.2c-0.6,1-1.2,2-1.8,3c-0.2,0.4-0.5,0.8-0.9,0.7c-0.2-0.1-0.4-0.2-0.5-0.4c-1.1-1.5-1.8-3.4-1.9-5.3  c-0.1-0.5-0.1-1,0.1-1.5C298.4,278.8,298.9,277.9,299.5,277.1z"></path>
<path class="st3" d="M283.4,282.6c0.2,0,0.3-0.2,0.5-0.2s0.4,0.3,0.5,0.6s0,0.6,0,0.9c0.1,0.5,0.1,0.9,0.3,1.3  c0.1,0.4,0.1,0.9,0,1.4c-0.1,0.4-0.5,0.6-0.9,0.5c-0.3-0.1-0.4-0.4-0.6-0.7c-0.4-0.6-1.2-1-1.3-1.7c-0.1-0.5,0.2-1,0.2-1.5  c0-0.2,0-0.3,0-0.5C282.2,281.9,283,282.6,283.4,282.6z"></path>
<path class="st1" d="M291.7,282.4c-1.8,2-3.4,4.2-4.5,6.7c-1-0.9-1.2-2.4-1.9-3.6c-0.1-0.3-0.4-0.5-0.7-0.5c-0.3,0-0.5,0.2-0.7,0.4  c-0.8,1-1.3,2.3-1.2,3.6c0.1,1.3,0.4,2.6,1,3.8c0.4,0.9,0.9,1.7,1.5,2.3c0.2,0.2,0.5,0.4,0.8,0.5c0.3,0.1,0.7,0,1-0.1  c0.5-0.3,1-0.6,1.4-1c1.2-1.1,2.3-2.2,3.4-3.4c1.5-1.8,3-3.9,3.2-6.3c0.1-1.1-0.2-2.3-1-3.1C293.2,280.9,292.4,281.8,291.7,282.4z"></path>
<linearGradient id="SVGID_4_" gradientUnits="userSpaceOnUse" x1="3118.0554" y1="57.6945" x2="3134.0654" y2="108.8245" gradientTransform="matrix(-1 0 0 -1 3422.5901 370.7556)">
	<stop offset="1.000000e-02" style="stop-color:#000000"></stop>
	<stop offset="0.13" style="stop-color:#000000;stop-opacity:0.69"></stop>
	<stop offset="1" style="stop-color:#000000;stop-opacity:0"></stop>
</linearGradient>
<path class="st7" d="M282.8,288.9c0.1,1.3,0.4,2.6,1,3.8c0.4,0.9,0.9,1.7,1.5,2.3c0.2,0.2,0.5,0.4,0.8,0.5c0.3,0.1,0.7,0,1-0.1  c0.5-0.3,1-0.6,1.4-1c0.8-0.7,1.5-1.4,2.2-2.2c0,1.1,0,2.2,0,3.4c0,1,0,1.9,0.1,2.9c0.1,0.8,0.3,1.5,0.6,2.2  c0.3,0.9,0.9,1.7,1.6,2.2c0.5,0.3,1,0.4,1.5,0.5c0.6,0.1,1.3,0.1,1.9,0c1.1,0,2.3-0.2,3.4-0.5c1.1-0.4,2-1.2,2.4-2.3  c0.2-0.7,0.2-1.4,0.2-2.1c-0.2-3.3-0.3-6.6-0.5-9.9c-0.1-1.3-0.1-2.6-0.2-3.9c0.3-0.5,0.6-1.1,1-1.7c0.6-1,1.1-2.1,1.5-3.2  c0.3-1.2,0.4-2.5,0.4-3.8c0-2.1,0.1-4.2,0-6.4c0-0.9-0.1-1.8-0.3-2.7c-0.2-0.1-0.4-0.2-0.6-0.2l-1.3,0h-0.5c-0.4,0-0.7,0.1-1,0.4  l0,0c-0.4,0.4-0.5,2.8-0.5,3.5l-0.4,4.6c0,0.4-0.1,0.7-0.2,1.1c-0.1,0.4-0.3,0.7-0.6,1c-0.3,0.4-0.7,0.9-1,1.3  c-0.6,0.6-1.2,1.4-1.8,1.4c-1.7,0-3.2,0.7-4.4,1.9c-0.2,0.2-0.4,0.4-0.6,0.6c-1.8,2-3.4,4.2-4.5,6.7c-1.1-0.9-1.2-2.4-1.9-3.6  c-0.2-0.3-0.4-0.5-0.7-0.5c-0.3,0-0.5,0.2-0.7,0.4C283.1,286.3,282.7,287.6,282.8,288.9z"></path>
<linearGradient id="SVGID_5_" gradientUnits="userSpaceOnUse" x1="3122.7395" y1="80.5658" x2="3140.1895" y2="116.5858" gradientTransform="matrix(-1 0 0 -1 3422.5901 370.7556)">
	<stop offset="2.000000e-02" style="stop-color:#FFFFFF;stop-opacity:0"></stop>
	<stop offset="0.58" style="stop-color:#FFFFFF;stop-opacity:0.39"></stop>
	<stop offset="0.68" style="stop-color:#FFFFFF;stop-opacity:0.68"></stop>
	<stop offset="1" style="stop-color:#FFFFFF"></stop>
</linearGradient>
<path class="st8" d="M284,285.3c2,7.1,2.6,5.7,2.6,5.7s1.5-0.6,4-4.8s4.7-4.2,6.9-4.9s3.5-3.5,4-4.8s1-9.9,1-9.9h-0.5  c-0.4,0.1-0.7,0.2-1,0.4l0,0c-0.4,0.4-0.5,2.8-0.5,3.5l-0.4,4.6c0,0.4-0.1,0.7-0.2,1.1c-0.1,0.4-0.3,0.7-0.6,1  c-0.3,0.4-0.7,0.9-1,1.3c-0.6,0.6-1.2,1.4-1.8,1.4c-1.7,0-3.2,0.7-4.4,1.9c-0.2,0.2-0.4,0.4-0.6,0.6c-1.8,2-3.4,4.2-4.5,6.7  c-1.1-0.9-1.2-2.4-1.9-3.6c-0.2-0.3-0.4-0.5-0.7-0.5C284.4,284.9,284.1,285.1,284,285.3z"></path>
<linearGradient id="SVGID_6_" gradientUnits="userSpaceOnUse" x1="3117.447" y1="77.4313" x2="3143.7871" y2="67.4213" gradientTransform="matrix(-1 0 0 -1 3422.5901 370.7556)">
	<stop offset="1.000000e-02" style="stop-color:#000000"></stop>
	<stop offset="0.13" style="stop-color:#000000;stop-opacity:0.69"></stop>
	<stop offset="1" style="stop-color:#000000;stop-opacity:0"></stop>
</linearGradient>
<path class="st9" d="M291,298.5c0.1,0.8,0.3,1.5,0.6,2.2c0.3,0.9,0.9,1.7,1.6,2.2c0.5,0.3,1,0.4,1.5,0.5c3.1,0.3,4.5,0.1-0.5-2.2  c-1.9-0.9-2-10.1-2-10.1l-1.3,1.1c0,1.1,0,2.2,0,3.4C290.8,296.6,290.9,297.5,291,298.5z"></path>
<path class="st3" d="M297.5,277.6c-0.4-1.4-0.5-3-1.5-4.1c-0.1-0.1-0.3-0.3-0.5-0.3c-0.1,0-0.3,0-0.5,0l-2.2,0.5  c-0.6,0.1-1,0.5-1.1,1.1c-0.3,0.8-0.4,1.7-0.4,2.5c0,0.6,0.1,1.2,0.5,1.7c0.7,0.8,2.1,0.6,2.7,1.5c0.2,0.4,0.3,0.9,0.7,1.1  c0.2,0.1,0.3,0.1,0.5,0.1c0.7,0.1,1.3,0,1.9-0.3c0.5-0.3,0.5-1,0.3-1.7S297.8,278.4,297.5,277.6z"></path>
<path class="st2" d="M295.7,271.5c0.8,0.1,1.5,0.5,2,1.1c0.5,0.9,0.7,1.9,0.5,2.9c-0.2,1-0.2,2,0.1,3c0.1,0.2,0.1,0.4,0,0.6  s-0.4,0.1-0.6,0.1c0,0.2-0.2,0.4-0.4,0.5c-0.2,0.1-0.5,0-0.6-0.2c0,0.3-0.4,0.4-0.6,0.3c-0.2-0.2-0.4-0.4-0.5-0.6l-0.6-1.2  c0-0.1-0.1-0.1-0.1-0.2c0-0.1,0.1-0.2,0.1-0.3c0.2-0.3,0.3-0.6,0.3-1c0-0.2-0.1-0.4-0.3-0.5c-0.2-0.1-0.4,0-0.5,0.2  c-0.1,0.2-0.2,0.4-0.2,0.6l-0.1,1c0,0.1-0.1,0.2-0.2,0.2s-0.1-0.1-0.1-0.1c-0.1-0.8-0.2-1.6-0.2-2.4c0,0,0-0.1,0-0.1  c0,0-0.1-0.1-0.2-0.1c-0.6-0.1-1.2-0.2-1.7-0.5c-0.5-0.3-0.9-0.8-1-1.4c0-0.3,0.1-0.6,0.3-0.8c0.1,0,0.1-0.1,0.2-0.1  c0-0.1,0.1-0.1,0.1-0.2c0.1-0.3,0.2-0.5,0.3-0.8c0.4-0.6,1-0.5,1.6-0.3C294.2,271.4,294.9,271.5,295.7,271.5z"></path>
<path class="st0" d="M305.9,314.7c0.2,0.5,0.3,1.1,0.3,1.6c0.1,1.3,0,2.5-0.4,3.8c-0.1,0.4-0.4,0.8-0.7,1c-0.4,0.1-0.8,0-1.1-0.3  c-0.6-0.8-0.9-1.9-0.7-2.9c0.1-1,0.2-2,0.4-3c0-0.3,0.1-0.5,0.3-0.8C304.5,313.2,305.6,314,305.9,314.7z"></path>
<path class="st2" d="M304.4,317.5c0.8,0.2,1.5,0.8,1.8,1.6c0.1,0.4,0.1,0.8,0.2,1.2c0.1,0.4,0.3,0.7,0.6,1.1  c0.2,0.4,0.4,0.8,0.5,1.3c0.1,0.4,0.1,0.8,0,1.3c-0.1,0.4-0.4,0.7-0.9,0.9c-0.2,0-0.4,0-0.6,0c-1-0.3-1.8-0.9-2.3-1.9  c-0.5-0.9-0.8-1.9-0.9-2.9c-0.2-0.8-0.3-1.6,0-2.3C303.1,317,304,317.2,304.4,317.5z"></path>
<path class="st0" d="M295.9,330c0.3,0.1,0.5,0.3,0.7,0.5c0.2,0.4,0.3,0.8,0.2,1.3l-0.2,2.1c0,0.4-0.1,0.8-0.4,1.1  c-0.4,0.3-0.9,0.3-1.3,0.1c-0.4-0.1-0.7-0.3-0.9-0.6c-0.1-0.2-0.1-0.4-0.1-0.6c0-1,0-2,0.1-3.1c0-0.4,0-0.9,0.4-1  C295,329.7,295.5,329.8,295.9,330z"></path>
<path class="st2" d="M296.9,335.2c0-0.4-0.2-0.8-0.6-1c-0.2-0.1-0.4-0.1-0.5-0.1l-1.3-0.1c-0.1,0-0.2,0-0.3,0  c-0.1,0-0.2,0.1-0.3,0.2c-0.3,0.7-0.4,1.4-0.4,2.1c-0.1,0.6-0.3,1.1-0.5,1.6c-0.2,0.5-0.3,1.1-0.2,1.7c0,0.1,0.1,0.3,0.2,0.4  c0.2,0.2,0.4,0.3,0.7,0.4c0.3,0,0.6,0,0.8-0.1c0.2,0,0.4-0.1,0.6-0.2c0.2-0.1,0.4-0.3,0.5-0.5c0.3-0.3,0.5-0.6,0.7-1  c0.1-0.3,0.2-0.7,0.3-1c0.1-0.9,0.2-1.8,0.1-2.8"></path>
<path class="st2" d="M223.6,122.5c3.9,2.8,1.2,17.8,0.4,20.2c-0.2,0.3-0.5,0.6-0.9,0.8c-1.3,0.4-2.3-0.1-2.2-1.6  c0.2-2.7,0.7-5.5,0.4-8.2c0-0.7-0.3-1.3-0.8-1.8c-0.3-0.1-0.6-0.2-0.9-0.2c-1-0.1-1.7-0.2-2.3,0.7c-0.7,1.2-1.1,2.6-1.1,4  c-0.1,1.9-0.3,3.7-0.6,5.6c-0.5,3.7-0.8,7.4-0.8,11.1c0.1,1.8,0.2,3.6-0.6,5.2c-0.3,0.6-0.8,1.1-1.5,1.3c-2.3,0.3-2-8-2-9.4  c-0.2-4-0.2-8-0.3-12c0-2.7,0-5.4-0.2-8.1c0-0.4,0-0.8,0.1-1.2c0.1-0.4,1.1-0.3,1.4-0.6c1.4-1.1,2.9-2.1,4.5-3  C217.6,124.4,222.3,121.5,223.6,122.5z"></path>
<path class="st1" d="M214.3,106.1c-1.9,0.1-4.1,0.9-4.9,2.7c-0.3,0.7-0.5,1.4-0.5,2.2c-0.4,3.6-0.5,7.2-0.5,10.9c0,1,0,1.9,0.1,2.9  c0.1,0.8,0.3,1.5,0.6,2.2c0.3,0.9,0.9,1.7,1.6,2.2c1.1,0.5,2.2,0.7,3.4,0.5c1.2,0,2.3-0.2,3.4-0.5c1.1-0.4,2-1.2,2.4-2.3  c0.2-0.7,0.2-1.4,0.2-2.1l-0.5-9.9l-0.2-5c0-1-0.7-5.2-1.8-5.8S215.5,106.1,214.3,106.1z"></path>
<path class="st3" d="M221.8,91.3c0.1-0.4,0-0.7-0.2-1c-0.3-0.2-0.6-0.2-0.9-0.1l-1.3,0.2c-0.1,0-0.2,0-0.3,0.1  c-0.2,0.1-0.2,0.5-0.3,0.7s-0.2,0.6-0.4,0.6c-0.1,0-0.2,0-0.3,0c-0.1,0-0.2,0.2-0.2,0.3c0,0.2,0.1,0.4,0.4,0.6  c0.2,0.1,0.4,0.2,0.6,0.4c0.3,0.2,0.6,0.6,0.7,0.9c0,0.2,0.1,0.5,0.2,0.7c0.2,0.3,0.6,0.5,1,0.4c0.7-0.1,0.9-0.6,0.9-1.2  C221.6,93.1,221.7,92.2,221.8,91.3z"></path>
<path class="st1" d="M217.1,103.4c0.3-0.3,0.5-0.6,0.6-1c0.1-0.3,0.2-0.7,0.2-1.1l0.4-4.6c0.1-0.7,0.1-3,0.5-3.5  c0.4-0.3,0.9-0.5,1.4-0.4h1.3c0.2,0,0.4,0,0.6,0.2c0.2,0.9,0.4,1.8,0.3,2.7c0,2.1,0,4.2,0,6.4c0,1.3-0.1,2.5-0.4,3.8  c-0.4,1.1-0.9,2.2-1.5,3.2c-0.6,1-1.2,2-1.8,3c-0.2,0.4-0.5,0.8-0.9,0.7c-0.2-0.1-0.4-0.2-0.5-0.3c-1.1-1.5-1.8-3.4-1.9-5.3  c-0.1-0.5-0.1-1,0.1-1.5C215.9,105,216.5,104.1,217.1,103.4z"></path>
<path class="st3" d="M200.9,108.8c0.2,0,0.3-0.2,0.5-0.2s0.4,0.3,0.5,0.6s0,0.6,0,0.8c0.1,0.5,0.1,0.9,0.3,1.3  c0.1,0.4,0.1,0.9,0,1.3c-0.1,0.4-0.5,0.6-0.9,0.5c-0.3-0.1-0.4-0.4-0.6-0.7c-0.4-0.6-1.2-1-1.3-1.7c-0.1-0.5,0.2-1,0.2-1.5  c0-0.2,0-0.3,0-0.5C199.8,108.1,200.6,108.9,200.9,108.8z"></path>
<path class="st1" d="M209.3,108.6c-1.8,2-3.4,4.2-4.5,6.7c-1.1-0.9-1.2-2.4-1.9-3.6c-0.1-0.4-0.5-0.6-0.9-0.5  c-0.2,0-0.4,0.2-0.5,0.4c-0.8,1-1.2,2.3-1.1,3.6c0.1,1.3,0.4,2.6,1,3.8c0.4,0.9,0.9,1.7,1.5,2.4c0.2,0.2,0.5,0.4,0.8,0.5  c0.3,0.1,0.7,0,1-0.1c0.5-0.3,1-0.6,1.4-1c1.2-1.1,2.3-2.2,3.4-3.4c1.6-1.8,3-3.9,3.2-6.3c0.2-1.1-0.2-2.3-1-3.1  C210.8,107.1,209.9,108,209.3,108.6z"></path>
<linearGradient id="SVGID_7_" gradientUnits="userSpaceOnUse" x1="3200.5034" y1="231.4651" x2="3216.5134" y2="282.5951" gradientTransform="matrix(-1 0 0 -1 3422.5901 370.7556)">
	<stop offset="1.000000e-02" style="stop-color:#000000"></stop>
	<stop offset="0.13" style="stop-color:#000000;stop-opacity:0.69"></stop>
	<stop offset="1" style="stop-color:#000000;stop-opacity:0"></stop>
</linearGradient>
<path class="st10" d="M200.4,115.2c0.1,1.3,0.4,2.6,1,3.7c0.4,0.9,0.9,1.7,1.5,2.3c0.2,0.2,0.5,0.4,0.8,0.5c0.3,0.1,0.7,0,1-0.1  c0.5-0.3,1-0.6,1.4-1c0.8-0.7,1.5-1.4,2.2-2.2c0,1.1,0,2.2,0,3.4c0,1,0,1.9,0.1,2.9c0.1,0.8,0.3,1.5,0.6,2.2  c0.3,0.9,0.9,1.7,1.6,2.2c0.5,0.3,1,0.4,1.5,0.5c0.6,0.1,1.3,0.1,1.9,0c1.1,0,2.3-0.2,3.4-0.5c1.1-0.4,2-1.2,2.4-2.3  c0.2-0.7,0.2-1.4,0.2-2.1c-0.2-3.3-0.3-6.6-0.5-9.9c-0.1-1.3-0.1-2.6-0.2-3.9c0.3-0.5,0.6-1.1,1-1.7c0.6-1,1.1-2.1,1.5-3.2  c0.3-1.2,0.4-2.5,0.4-3.8c0-2.1,0.1-4.2,0-6.4c0-0.9-0.1-1.8-0.3-2.7c-0.2-0.1-0.4-0.2-0.6-0.2h-1.3h-0.5c-0.4,0-0.7,0.1-1,0.4l0,0  c-0.4,0.4-0.4,2.8-0.5,3.5l-0.4,4.6c0,0.4-0.1,0.7-0.2,1.1c-0.1,0.4-0.3,0.7-0.6,1c-0.3,0.4-0.7,0.9-0.9,1.3  c-0.6,0.6-1.2,1.4-1.8,1.4c-1.7,0-3.2,0.7-4.4,1.9c-0.2,0.2-0.4,0.4-0.6,0.6c-1.8,2-3.4,4.2-4.5,6.7c-1.1-0.8-1.2-2.4-1.9-3.6  c-0.2-0.3-0.4-0.5-0.7-0.6c-0.3,0-0.5,0.2-0.7,0.4C200.7,112.6,200.3,113.9,200.4,115.2z"></path>
<linearGradient id="SVGID_8_" gradientUnits="userSpaceOnUse" x1="3205.1731" y1="254.3438" x2="3222.623" y2="290.3638" gradientTransform="matrix(-1 0 0 -1 3422.5901 370.7556)">
	<stop offset="2.000000e-02" style="stop-color:#FFFFFF;stop-opacity:0"></stop>
	<stop offset="0.58" style="stop-color:#FFFFFF;stop-opacity:0.39"></stop>
	<stop offset="0.68" style="stop-color:#FFFFFF;stop-opacity:0.68"></stop>
	<stop offset="1" style="stop-color:#FFFFFF"></stop>
</linearGradient>
<path class="st11" d="M201.6,111.5c2,7.1,2.6,5.7,2.6,5.7s1.6-0.6,4.1-4.8s4.7-4.2,6.9-4.9s3.5-3.5,4-4.8s1.1-9.9,1.1-9.9h-0.5  c-0.4,0.1-0.7,0.2-1,0.4l0,0c-0.4,0.4-0.4,2.8-0.5,3.5l-0.4,4.6c0,0.4-0.1,0.7-0.2,1.1c-0.1,0.4-0.3,0.7-0.6,1  c-0.3,0.4-0.7,0.9-0.9,1.3c-0.6,0.6-1.2,1.4-1.8,1.4c-1.7,0-3.2,0.7-4.4,1.9c-0.2,0.2-0.4,0.4-0.6,0.6c-1.8,2-3.4,4.2-4.5,6.7  c-1.1-0.8-1.2-2.4-1.9-3.6c-0.2-0.3-0.4-0.5-0.7-0.6C201.9,111.1,201.7,111.2,201.6,111.5z"></path>
<linearGradient id="SVGID_9_" gradientUnits="userSpaceOnUse" x1="3199.9102" y1="251.2363" x2="3226.2502" y2="241.2262" gradientTransform="matrix(-1 0 0 -1 3422.5901 370.7556)">
	<stop offset="1.000000e-02" style="stop-color:#000000"></stop>
	<stop offset="0.13" style="stop-color:#000000;stop-opacity:0.69"></stop>
	<stop offset="1" style="stop-color:#000000;stop-opacity:0"></stop>
</linearGradient>
<path class="st12" d="M208.5,124.7c0.1,0.8,0.3,1.5,0.6,2.2c0.3,0.9,0.9,1.7,1.6,2.2c0.5,0.3,1,0.4,1.5,0.5c3.1,0.3,4.5,0.1-0.5-2.2  c-1.9-0.9-2-10.1-2-10.1l-1.3,1.2c0,1.1,0,2.2,0,3.4C208.4,122.8,208.4,123.7,208.5,124.7z"></path>
<path class="st0" d="M223.4,140.9c0.2,0.5,0.3,1.1,0.3,1.6c0.1,1.3,0,2.5-0.4,3.8c-0.1,0.4-0.4,0.8-0.7,1c-0.4,0.1-0.8,0-1.1-0.3  c-0.7-0.8-0.9-1.9-0.7-2.9c0.1-1,0.2-2,0.4-3c0-0.3,0.1-0.5,0.3-0.8C222.1,139.5,223.1,140.3,223.4,140.9z"></path>
<path class="st2" d="M222,143.7c0.8,0.2,1.5,0.8,1.8,1.6c0.1,0.4,0.1,0.8,0.2,1.2c0.1,0.4,0.3,0.7,0.6,1.1c0.2,0.4,0.4,0.8,0.5,1.3  c0.1,0.4,0.1,0.8,0,1.3c-0.1,0.4-0.4,0.7-0.9,0.9c-0.2,0-0.4,0-0.6,0c-1-0.3-1.8-1-2.3-1.9c-0.5-0.9-0.8-1.9-0.9-2.9  c-0.3-0.8-0.3-1.6-0.1-2.4C220.6,143.3,221.5,143.5,222,143.7z"></path>
<path class="st0" d="M213.4,156.2c0.3,0.1,0.5,0.3,0.7,0.5c0.2,0.4,0.3,0.8,0.2,1.3l-0.2,2.1c0,0.4-0.1,0.8-0.4,1.1  c-0.4,0.3-0.9,0.3-1.3,0.1c-0.4-0.1-0.7-0.3-0.9-0.6c-0.1-0.2-0.1-0.4-0.1-0.6c0-1,0-2,0.1-3.1c0.1-0.4,0-0.9,0.4-1  C212.5,156,213,156,213.4,156.2z"></path>
<path class="st2" d="M214.5,161.5c0-0.4-0.2-0.8-0.6-1c-0.2-0.1-0.4-0.1-0.5-0.1l-1.3-0.1c-0.1,0-0.2,0-0.3,0  c-0.1,0-0.2,0.1-0.3,0.2c-0.3,0.7-0.4,1.4-0.4,2.1c-0.1,0.6-0.3,1.1-0.5,1.6c-0.2,0.5-0.3,1.1-0.2,1.7c0.1,0.4,0.5,0.7,0.9,0.7  c0.3,0,0.6,0,0.8-0.1c0.2,0,0.4-0.1,0.6-0.2c0.2-0.1,0.4-0.3,0.5-0.4c0.3-0.3,0.5-0.6,0.7-1c0.1-0.3,0.2-0.7,0.3-1  c0.1-0.9,0.2-1.8,0.1-2.8"></path>
<path class="st3" d="M211.1,105.7c0,0.4,0,0.9,0.1,1.3c0.1,0.4,0.4,0.8,0.8,1c0.2,0.1,0.5,0.2,0.8,0.2c0.5,0,1-0.2,1.4-0.6  c0.3-0.4,0.4-0.8,0.5-1.2c0.2-1.2,0.3-2.3,0.3-3.5c0-0.2,0-0.4-0.1-0.6c-0.3-0.6-1-0.8-1.6-0.6c-0.8,0.1-1.5,0.6-1.9,1.3  C211,103.8,210.9,104.8,211.1,105.7z"></path>
<path class="st3" d="M209.1,102c0.1,0.6,0.2,1.1,0.4,1.6c0.8,1.9,2.9,2.9,4.9,2.1c0,0,0,0,0,0c0.5-0.2,0.9-0.5,1.2-0.9  c0.2-0.4,0.3-0.8,0.4-1.3c0.1-1,0.2-1.9,0.2-2.9c0-0.6,0-1.1-0.2-1.7c-0.1-0.5-0.5-1-1-1.3c-0.4-0.2-0.9-0.2-1.4-0.2  c-1.4,0-3.1-0.1-4.3,0.7c-0.5,0.3-0.4,0.8-0.4,1.4C208.9,100.3,209,101.2,209.1,102z"></path>
<path class="st2" d="M215.3,101.3c0.2,0.5,0.1,1-0.3,1.4l-0.3,1.8c0,0.3-0.1,0.6-0.4,0.7c-0.1,0-0.2,0-0.3,0c-0.4,0-0.8,0.5-1.2,0.3  c-0.1-0.1-0.2-0.1-0.3-0.2c-0.2,0-0.4,0.1-0.5,0.2c-0.5,0.2-1.1-0.1-1.4-0.5c-0.3-0.5-0.6-0.9-0.8-1.4c-0.3-0.4-0.6-0.8-0.8-1.3  c-0.2-0.5-0.1-1.1-0.4-1.6c-0.1-0.1-0.2-0.2-0.2-0.3c0-0.1,0-0.3,0-0.4c0-0.7,0.1-1.3,0.2-2c0.1-0.6,0.5-1.2,0.9-1.7  c0.6-0.5,1.4-0.8,2.2-0.6c1-0.5,2.2-0.7,3.4-0.5c0.1,0,0.2,0.1,0.3,0.1c0.1,0.2,0,0.4-0.1,0.6c0.7,0.3,1.1,0.9,1.3,1.6  c-0.2,0-0.4,0.2-0.4,0.4c0,0.2,0,0.4,0.1,0.6c0.1,0.3,0.2,0.7,0.2,1c0,0.2,0,0.3-0.1,0.5c-0.1,0.1-0.2,0.3-0.3,0.4  C215.6,100.5,215.4,100.8,215.3,101.3z"></path>
<path class="st0" d="M245.5,171.7c-2.4,1.2-4.7,2.7-6.1,5c-2.6,4.5-0.2,10.6,4,13.5s9.9,3.1,15,2.2c5.1-0.9,9.9-2.9,15-4  c0.7-0.2,1.4-0.3,2.2-0.1c1.5,0.3,2.4,1.9,3.5,3c3.2,3.5,8.6,3.7,13.4,3.7l45.2-0.1c13.2,0,27.1-0.2,38.8-6.5c1.7-0.9,3.4-2,4-3.8  c0.6-2.1,0.1-4.3-1.4-5.8c-1.5-1.5-3.3-2.7-5.2-3.5c-5.1-2.4-10.5-4.4-16.1-4.5c0.9-3.9-0.1-8.1-2.5-11.2c-2.5-3.1-5.9-5.5-9.7-6.8  c-8.4-3.1-18.6-1.8-24.7,4.7c-4.5-6.3-11-10.8-18.5-13c-7.4-2-15.7-0.9-22,3.5c-3.1,2.2-5.7,5.2-7.3,8.7c-1.2,2.5-1,8-2.9,9.8  s-8.5,0.7-11.2,1.1C254.2,168.2,249.7,169.6,245.5,171.7z"></path>
<path class="st0" d="M341.6,239.3c-1.2,0-2.4,0.2-3.5,0.6c-1.9,0.7-3.2,2.4-4.4,4c-2,2.7-4,6.4-2,9c1.4,1.7,3.9,2,6.1,1.9  c6.1-0.1,12.2-1,18.1-2.7c1.8-0.5,3.7-1,5.3-0.3c1.2,0.5,2,1.7,3,2.4c1.6,1.1,3.6,1.1,5.6,1.1h10.7c8.5,0,18.5-0.7,23.3-7.7  c1.5-1.9,2-4.4,1.4-6.8c-1.2-3.6-5.5-5-9.2-5.9c-8.3-1.9-24.2-9.3-30.8-2.4c-2.3,2.4-3.3,5.5-6.7,6.6  C353.8,240.8,346.6,239.1,341.6,239.3z"></path>
<path class="st13" d="M377.5,127.6C340.3,48.3,336.3-1.7,236.7,0.1S188.5,77.5,84.8,136.9C11.5,179-49.6,380.2,138.6,380.2  S458.2,299.6,377.5,127.6z"></path>
<polygon class="st14" points="362.6,238.3 366.1,244.8 372.5,248.3 366.1,251.8 362.6,258.2 359,251.8 352.6,248.3 359,244.8 "></polygon>
<g id="XMLID_38_">
	<path id="XMLID_44_" class="st15" d="M361.4,198.8L361.4,198.8c-14.5-5.5-21.7-21.7-16.2-36.2l0,0c5.5-14.5,21.7-21.7,36.2-16.2   l0,0c14.5,5.5,21.7,21.7,16.2,36.2l0,0C392,197,375.8,204.3,361.4,198.8z"></path>
	<path id="XMLID_2_" class="st0" d="M367,189.8h7v-17.4h4.9l0.5-5.8H374c0,0,0-2.2,0-3.3c0-1.4,0.3-1.9,1.6-1.9c1.1,0,3.8,0,3.8,0   v-6c0,0-4,0-4.8,0c-5.2,0-7.5,2.3-7.5,6.6c0,3.8,0,4.6,0,4.6h-3.6v5.9h3.6V189.8z"></path>
</g>
<g id="XMLID_24_">
	<path id="XMLID_26_" class="st15" d="M137,117.2L137,117.2c-12.9,0-23.4-10.5-23.4-23.4l0,0c0-12.9,10.5-23.4,23.4-23.4l0,0   c12.9,0,23.4,10.5,23.4,23.4l0,0C160.4,106.7,149.9,117.2,137,117.2z"></path>
	<path id="XMLID_25_" class="st0" d="M124.5,101.6c2.3,1.5,5,2.3,7.8,2.3c9.5,0,14.9-8,14.6-15.2c1-0.7,1.9-1.6,2.6-2.7   c-0.9,0.4-1.9,0.7-2.9,0.8c1.1-0.6,1.9-1.6,2.3-2.8c-1,0.6-2.1,1-3.3,1.2c-0.9-1-2.3-1.6-3.7-1.6c-3.3,0-5.7,3.1-5,6.3   c-4.3-0.2-8-2.3-10.6-5.4c-1.3,2.3-0.7,5.3,1.6,6.8c-0.8,0-1.6-0.3-2.3-0.6c-0.1,2.4,1.6,4.6,4.1,5.1c-0.7,0.2-1.5,0.2-2.3,0.1   c0.7,2,2.5,3.5,4.8,3.6C129.9,101.1,127.2,101.9,124.5,101.6z"></path>
</g>
<g id="XMLID_4_">
	<path id="XMLID_21_" class="st15" d="M60.1,355.6L60.1,355.6c-19.8,4.7-39.6-7.5-44.3-27.3l0,0c-4.7-19.8,7.5-39.6,27.3-44.3h0   c19.8-4.7,39.6,7.5,44.3,27.3l0,0C92.1,331,79.9,350.9,60.1,355.6z"></path>
	<g id="XMLID_5_">
		<path id="XMLID_14_" class="st0" d="M47.7,303.7c5.2-1.2,5.9-1.4,8-1.8c1.9-0.4,3.1-0.3,3.8-0.2c1,0.1,1.8,0.4,2.6,0.9    c0.9,0.5,1.4,1.1,2,1.9c0.4,0.6,1,1.6,1.5,3.5c0.6,2,0.8,2.7,2,7.9c1.2,5.2,1.4,5.9,1.8,8c0.4,1.9,0.3,3.1,0.2,3.8    c-0.1,1-0.4,1.8-0.9,2.6c-0.5,0.9-1.1,1.4-1.9,2c-0.6,0.4-1.6,1-3.5,1.5c-2,0.6-2.7,0.8-7.9,2c-5.2,1.2-5.9,1.4-8,1.8    c-1.9,0.4-3.1,0.3-3.8,0.2c-1-0.1-1.8-0.4-2.6-0.9c-0.9-0.5-1.4-1.1-2-1.9c-0.4-0.6-1-1.6-1.5-3.5c-0.6-2-0.8-2.7-2-7.9    c-1.2-5.2-1.4-5.9-1.8-8c-0.4-1.9-0.3-3.1-0.2-3.8c0.1-1,0.4-1.8,0.9-2.6c0.5-0.9,1.1-1.4,1.9-2c0.6-0.4,1.6-1,3.5-1.5    C41.9,305.1,42.5,304.9,47.7,303.7 M46.9,300.1c-5.3,1.3-6,1.5-8.1,2c-2.1,0.6-3.4,1.3-4.5,2c-1.2,0.8-2.1,1.7-2.9,3.1    c-0.8,1.4-1.2,2.6-1.4,4c-0.2,1.4-0.2,2.9,0.2,5c0.4,2.1,0.5,2.8,1.8,8.1c1.3,5.3,1.5,6,2,8.1c0.6,2.1,1.3,3.4,2,4.5    c0.8,1.2,1.7,2.1,3.1,2.9c1.4,0.8,2.6,1.2,4,1.4c1.4,0.2,2.9,0.2,5-0.2c2.1-0.4,2.8-0.5,8.1-1.8c5.3-1.3,6-1.5,8.1-2    c2.1-0.6,3.4-1.3,4.5-2c1.2-0.8,2.1-1.7,2.9-3.1c0.8-1.4,1.2-2.6,1.4-4c0.2-1.4,0.2-2.9-0.2-5c-0.4-2.1-0.5-2.8-1.8-8.1    c-1.3-5.3-1.5-6-2-8.1c-0.6-2.1-1.3-3.4-2-4.5c-0.8-1.2-1.7-2.1-3.1-2.9c-1.4-0.8-2.6-1.2-4-1.4c-1.4-0.2-2.9-0.2-5,0.2    C52.9,298.7,52.2,298.9,46.9,300.1"></path>
		<path id="XMLID_8_" class="st0" d="M49.2,309.7c-5.6,1.3-9,6.9-7.7,12.5c1.3,5.6,6.9,9,12.5,7.7c5.6-1.3,9-6.9,7.7-12.5    C60.3,311.8,54.7,308.4,49.2,309.7 M53.1,326.3c-3.6,0.9-7.2-1.4-8.1-5c-0.9-3.6,1.4-7.2,5-8.1c3.6-0.9,7.2,1.4,8.1,5    C59,321.8,56.7,325.4,53.1,326.3"></path>
		<path id="XMLID_7_" class="st0" d="M61.9,306.2c0.3,1.3-0.5,2.6-1.8,2.9c-1.3,0.3-2.6-0.5-2.9-1.8c-0.3-1.3,0.5-2.6,1.8-2.9    C60.3,304.1,61.6,304.9,61.9,306.2"></path>
	</g>
</g>
<g class="st16">
	<polygon class="st17" points="290.8,76.9 295.5,85.4 304.1,90.1 295.5,94.8 290.8,103.4 286.1,94.8 277.6,90.1 286.1,85.4  "></polygon>
	<polygon class="st18" points="315.5,186.6 316.7,188.6 318.7,189.8 316.7,190.9 315.5,193 314.4,190.9 312.4,189.8 314.4,188.6     "></polygon>
	<polygon class="st18" points="339.1,237.8 340.3,239.8 342.3,240.9 340.3,242.1 339.1,244.1 338,242.1 336,240.9 338,239.8  "></polygon>
	<polygon class="st18" points="284.6,199.3 287.2,204.1 291.9,206.7 287.2,209.3 284.6,214.1 282,209.3 277.2,206.7 282,204.1  "></polygon>
</g>
<g class="st16">
	<polygon class="st17" points="49.3,238.8 50.4,240.8 52.5,242 50.4,243.1 49.3,245.2 48.1,243.1 46.1,242 48.1,240.8  "></polygon>
	<polygon class="st17" points="70.4,206.3 73,211.1 77.8,213.7 73,216.3 70.4,221.1 67.8,216.3 63.1,213.7 67.8,211.1  "></polygon>
</g>
</svg>
