<?xml version="1.0" encoding="UTF-8"?>
<!-- Generator: Adobe Illustrator 24.1.0, SVG Export Plug-In . SVG Version: 6.00 Build 0)  -->
<svg xmlns="http://www.w3.org/2000/svg" xmlns:xlink="http://www.w3.org/1999/xlink" id="Layer_1" x="0px" y="0px" viewBox="0 0 392.6 321.9" style="enable-background:new 0 0 392.6 321.9;" xml:space="preserve">
<style type="text/css">
	.st0{opacity:0.1;fill:#E92733;enable-background:new    ;}
	.st1{fill:url(#SVGID_1_);}
	.st2{fill:#E92733;}
	.st3{fill:url(#SVGID_2_);}
	.st4{fill:url(#SVGID_3_);}
	.st5{fill:url(#SVGID_4_);}
	.st6{fill:url(#SVGID_5_);}
	.st7{fill:url(#SVGID_6_);}
	.st8{fill:url(#SVGID_7_);}
	.st9{fill:url(#SVGID_8_);}
	.st10{fill:url(#SVGID_9_);}
	.st11{fill:url(#SVGID_10_);}
	.st12{fill:url(#SVGID_11_);}
	.st13{fill:url(#SVGID_12_);}
	.st14{fill:url(#SVGID_13_);}
	.st15{fill:url(#SVGID_14_);}
	.st16{fill:url(#SVGID_15_);}
	.st17{fill:url(#SVGID_16_);}
	.st18{fill:url(#SVGID_17_);}
	.st19{clip-path:url(#SVGID_19_);}
	.st20{fill:url(#SVGID_20_);}
	.st21{fill:url(#SVGID_21_);}
	.st22{fill:url(#SVGID_22_);}
	.st23{fill:url(#SVGID_23_);}
	.st24{fill:#F1AF8C;}
	.st25{fill:url(#SVGID_24_);}
	.st26{fill:url(#SVGID_25_);}
	.st27{fill:url(#SVGID_26_);}
	.st28{fill:url(#SVGID_27_);}
	.st29{fill:url(#SVGID_28_);}
	.st30{fill:url(#SVGID_29_);}
	.st31{fill:url(#SVGID_30_);}
	.st32{fill:url(#SVGID_31_);}
	.st33{fill:url(#SVGID_32_);}
	.st34{fill:url(#SVGID_33_);}
	.st35{fill:url(#SVGID_34_);}
	.st36{fill:url(#SVGID_35_);}
	.st37{fill:url(#SVGID_36_);}
	.st38{fill:url(#SVGID_37_);}
	.st39{fill:url(#SVGID_38_);}
	.st40{fill:url(#SVGID_39_);}
	.st41{fill:url(#SVGID_40_);}
	.st42{fill:url(#SVGID_41_);}
	.st43{fill:url(#SVGID_42_);}
	.st44{fill:url(#SVGID_43_);}
	.st45{fill:url(#SVGID_44_);}
	.st46{fill:url(#SVGID_45_);}
	.st47{fill:url(#SVGID_46_);}
	.st48{fill:url(#SVGID_47_);}
	.st49{fill:url(#SVGID_48_);}
	.st50{fill:url(#SVGID_49_);}
	.st51{fill:url(#SVGID_50_);}
	.st52{fill:#FFACB3;}
	.st53{fill:#FFFFFF;}
</style>

<path class="st0" d="M388.4,163.9c-4.3,12.8-11.5,24.4-19.2,35.6c-8.2,11.9-17,23.6-28.3,32.5c-13.5,10.6-30,16.8-44.1,26.7  c-12.4,8.7-22.6,20.1-34.3,29.6c-29.8,24.2-67.7,36-106,33.1c-11.1-0.9-22.3-3.1-32.2-8.3c-3.4-1.8-6.6-3.9-9.6-6.3  c-12.8-9.9-22.6-23.9-34.3-35.3c-23.1-22.3-55.4-36.2-71-64.2c-1.2-2.3-2.4-4.6-3.4-7C-1.3,183-1.6,163,3.5,144.9  c4.9-17.4,14.4-33.1,26.4-46.7c2.3-2.5,4.6-5,7-7.4c10.7-10.6,22.9-20,31.1-32.7c1.2-1.8,2.2-3.7,3.3-5.6  c3.5-6.4,6.6-13.1,11.5-18.6c7.4-8.3,17.9-13,28.2-17.1C131,8.7,151.6,1.1,173.2,0c18.8-1,37.5,3.1,55,9.5  c25.3,9.3,47.8,22.7,73.9,29.7c14.2,3.8,28.2,8.6,40.8,15.6c12,6.4,22.5,15.3,30.8,26c8.3,10.9,14.1,23.4,17,36.8  C394,133.1,393.3,149,388.4,163.9z"></path>
<linearGradient id="SVGID_1_" gradientUnits="userSpaceOnUse" x1="344.5562" y1="-127.9306" x2="325.1162" y2="-48.6606" gradientTransform="matrix(1 0 0 -1 -14.67 34.6756)">
	<stop offset="2.000000e-02" style="stop-color:#FFFFFF;stop-opacity:0"></stop>
	<stop offset="0.39" style="stop-color:#FFFFFF;stop-opacity:0.39"></stop>
	<stop offset="1" style="stop-color:#FFFFFF"></stop>
</linearGradient>
<path class="st1" d="M390.5,117.8c-2.5,2.3-4.9,4.8-7.1,7.3c-2.3,2.7-4.1,5.9-6.7,8.3c-4.7,4.4-11.5,6.1-17.9,5.5s-12.5-3.4-17.8-7  c-0.6,7.4-8.5,12-15.8,13.4c-12.2,2.3-24.8-0.8-34.5-8.5c-6.1,7.3-15.7,10.7-25,8.9c-2.5-0.4-4.9-1.5-6.8-3.2  c-1.7-1.8-2.9-3.9-3.7-6.3c-1.9-4.5-3.9-9-5.8-13.5c-1.5-3.6-3.1-7.2-3.4-11.1c-0.6-7.9,4.4-15.5,10.9-19.9  c6.6-4.5,14.5-6.3,22.4-7.6l29.7,2.8c-2.2-4.1-1.2-9.6,2.8-12c4.3-2.3,9.6-1,12.4,3c3.4-8.2,7.2-17,15-21.3c1.2-0.6,2.4-1.2,3.6-1.6  c12,6.4,22.5,15.3,30.8,26C381.8,91.8,387.6,104.4,390.5,117.8z"></path>
<path class="st2" d="M190.6,103.5c-0.2,0.8-0.2,1.7-0.2,2.6s0.4,1.7,1,2.3c0.6,0.5,1.4,0.7,2.2,0.6s1.5-0.3,2.2-0.7  c0.3-0.2,0.6-0.4,0.8-0.7c0.3-0.6,0.5-1.3,0.4-1.9c-0.1-2.2-0.4-4.4-0.8-6.6c0-0.5-0.2-1-0.5-1.4c-0.8-1-3.8-2-4.6-0.7  c-0.5,0.7-0.2,2-0.3,2.8C190.9,101,190.8,102.2,190.6,103.5z"></path>
<linearGradient id="SVGID_2_" gradientUnits="userSpaceOnUse" x1="209.0616" y1="-62.6396" x2="207.5016" y2="-78.2796" gradientTransform="matrix(1 0 0 -1 -14.67 34.6756)">
	<stop offset="1.000000e-02" style="stop-color:#000000"></stop>
	<stop offset="1" style="stop-color:#000000;stop-opacity:0"></stop>
</linearGradient>
<path class="st3" d="M190.6,103.5c-0.2,0.8-0.2,1.7-0.2,2.6s0.4,1.7,1,2.3c0.6,0.5,1.4,0.7,2.2,0.6s1.5-0.3,2.2-0.7  c0.3-0.2,0.6-0.4,0.8-0.7c0.3-0.6,0.5-1.3,0.4-1.9c-0.1-2.2-0.4-4.4-0.8-6.6c0-0.5-0.2-1-0.5-1.4c-0.8-1-3.8-2-4.6-0.7  c-0.5,0.7-0.2,2-0.3,2.8C190.9,101,190.8,102.2,190.6,103.5z"></path>
<path class="st2" d="M125.5,127.8c0,0-40.6-25.8-33.3-34.6c0,0,2.1-5,12.2-3.7s75.3,26.2,75.3,26.2L125.5,127.8z"></path>
<linearGradient id="SVGID_3_" gradientUnits="userSpaceOnUse" x1="151.318" y1="-68.9002" x2="91.748" y2="-81.3603" gradientTransform="matrix(1 0 0 -1 -14.67 34.6756)">
	<stop offset="1.000000e-02" style="stop-color:#000000"></stop>
	<stop offset="0.83" style="stop-color:#000000;stop-opacity:7.000000e-02"></stop>
	<stop offset="1" style="stop-color:#000000;stop-opacity:0"></stop>
</linearGradient>
<path class="st4" d="M179.7,115.7l-19.5,4.4l-34.7,7.8c0,0-40.6-25.8-33.3-34.6c0.8-1.5,2.2-2.6,3.8-3.1c2.7-0.9,5.6-1.1,8.4-0.6  C114.4,90.8,179.7,115.7,179.7,115.7z"></path>
<linearGradient id="SVGID_4_" gradientUnits="userSpaceOnUse" x1="168.2686" y1="-104.9651" x2="137.3586" y2="-37.4151" gradientTransform="matrix(1 0 0 -1 -14.67 34.6756)">
	<stop offset="1.000000e-02" style="stop-color:#000000"></stop>
	<stop offset="0.83" style="stop-color:#000000;stop-opacity:7.000000e-02"></stop>
	<stop offset="1" style="stop-color:#000000;stop-opacity:0"></stop>
</linearGradient>
<path class="st5" d="M179.7,115.7l-19.5,4.4l-30.6,4.2c0,0-39.2-25-33.6-34.1c2.7-0.9,5.6-1.1,8.4-0.6  C114.4,90.8,179.7,115.7,179.7,115.7z"></path>
<path class="st2" d="M273.2,130.8c-0.3,2-1,3.9-2,5.6c0,0-59.6,35.4-94.5,41.6c-31.1,5.6-55.5,7.1-65.7-13.4  c-1.3-2.7-2.4-5.6-3.1-8.5c-0.5-3.1-0.3-6.2,0.5-9.2c2.1-8.5,9.8-20.7,35.4-26.7c41.6-9.7,99.2-2,100.4-2c1,0,16.8,2.1,21.7,2.8  l1.4,0.2C267.5,121.1,274.2,123.6,273.2,130.8z"></path>
<ellipse class="st2" cx="115" cy="161.5" rx="21.2" ry="28.6"></ellipse>
<linearGradient id="SVGID_5_" gradientUnits="userSpaceOnUse" x1="206.8671" y1="-144.0058" x2="191.1671" y2="-0.4358" gradientTransform="matrix(1 0 0 -1 -14.67 34.6756)">
	<stop offset="2.000000e-02" style="stop-color:#FFFFFF;stop-opacity:0"></stop>
	<stop offset="0.39" style="stop-color:#FFFFFF;stop-opacity:0.39"></stop>
	<stop offset="1" style="stop-color:#FFFFFF"></stop>
</linearGradient>
<path class="st6" d="M266.1,121c0,1.6-0.9,3-2.3,3.7c-5.6,3-93.5,16.4-112.5,22s-34.4,3.7-34.4,3.7l-8.2-2.6l-0.2-1  c2.1-8.5,9.8-20.7,35.4-26.7c41.6-9.7,99.2-2,100.4-2C245.4,118.2,261.2,120.3,266.1,121z"></path>
<linearGradient id="SVGID_6_" gradientUnits="userSpaceOnUse" x1="199.5577" y1="-58.1464" x2="182.2697" y2="-82.8633" gradientTransform="matrix(1 0 0 -1 0 51.2756)">
	<stop offset="1.000000e-02" style="stop-color:#000000"></stop>
	<stop offset="0.83" style="stop-color:#000000;stop-opacity:7.000000e-02"></stop>
	<stop offset="1" style="stop-color:#000000;stop-opacity:0"></stop>
</linearGradient>
<ellipse class="st7" cx="190.9" cy="121.8" rx="24.6" ry="6.6"></ellipse>
<linearGradient id="SVGID_7_" gradientUnits="userSpaceOnUse" x1="241.5814" y1="-63.4123" x2="170.1704" y2="-165.4909" gradientTransform="matrix(1 0 0 -1 -14.67 34.6756)">
	<stop offset="1.000000e-02" style="stop-color:#000000"></stop>
	<stop offset="0.83" style="stop-color:#000000;stop-opacity:7.000000e-02"></stop>
	<stop offset="1" style="stop-color:#000000;stop-opacity:0"></stop>
</linearGradient>
<path class="st8" d="M273.2,130.8c-0.3,2-1,3.9-2,5.6c0,0-59.6,35.4-94.5,41.6c-31.1,5.6-55.5,7.1-65.7-13.4l-0.1-2.3  c0,0,5.2-0.8,18.7,3.2s56.8-2,75.8-9s67.7-26.1,67.7-26.1L273.2,130.8z"></path>
<path class="st2" d="M310.8,181.6l-10.8,4.7c-27.8,7.1-82.6-8.9-109.9-17.9c-2.7-0.9-4.1-3.8-3.3-6.5c0.5-1.7,1.9-2.9,3.6-3.4  l0.9-0.2l60.4-15.4l59.2,29c0.5,0.2,0.9,0.5,1.3,0.9c2.2,2,2.3,5.4,0.3,7.5C312.1,180.9,311.5,181.3,310.8,181.6z"></path>
<linearGradient id="SVGID_8_" gradientUnits="userSpaceOnUse" x1="201.2461" y1="-130.8078" x2="328.5986" y2="-130.8078" gradientTransform="matrix(1 0 0 -1 -14.67 34.6756)">
	<stop offset="1.000000e-02" style="stop-color:#000000"></stop>
	<stop offset="0.83" style="stop-color:#000000;stop-opacity:7.000000e-02"></stop>
	<stop offset="1" style="stop-color:#000000;stop-opacity:0"></stop>
</linearGradient>
<path class="st9" d="M310.8,181.6l-10.8,4.7c-27.8,7.1-82.6-8.9-109.9-17.9c-2.7-0.9-4.1-3.8-3.3-6.5c0.5-1.7,1.9-2.9,3.6-3.4  l0.9-0.2l60.4-15.4l59.2,29c0.5,0.2,0.9,0.5,1.3,0.9c2.2,2,2.3,5.4,0.3,7.5C312.1,180.9,311.5,181.3,310.8,181.6z"></path>
<path class="st2" d="M312.3,172.8l-9.6,4.2c-27.7,7.1-82.6-8.9-109.9-17.9c-0.5-0.2-1-0.4-1.4-0.7l60.4-15.4l59.2,29  C311.5,172.2,312,172.5,312.3,172.8z"></path>
<linearGradient id="SVGID_9_" gradientUnits="userSpaceOnUse" x1="223.47" y1="-91.7165" x2="380.5" y2="-234.7265" gradientTransform="matrix(1 0 0 -1 -14.67 34.6756)">
	<stop offset="1.000000e-02" style="stop-color:#000000"></stop>
	<stop offset="0.83" style="stop-color:#000000;stop-opacity:7.000000e-02"></stop>
	<stop offset="1" style="stop-color:#000000;stop-opacity:0"></stop>
</linearGradient>
<path class="st10" d="M312.3,172.8l-9.6,4.2c-27.7,7.1-82.6-8.9-109.9-17.9c-0.5-0.2-1-0.4-1.4-0.7l60.4-15.4l59.2,29  C311.5,172.2,312,172.5,312.3,172.8z"></path>
<linearGradient id="SVGID_10_" gradientUnits="userSpaceOnUse" x1="79.1789" y1="-88.477" x2="152.6489" y2="-136.147" gradientTransform="matrix(1 0 0 -1 0 51.2756)">
	<stop offset="2.000000e-02" style="stop-color:#FFFFFF;stop-opacity:0"></stop>
	<stop offset="0.39" style="stop-color:#FFFFFF;stop-opacity:0.39"></stop>
	<stop offset="1" style="stop-color:#FFFFFF"></stop>
</linearGradient>
<ellipse class="st11" cx="114.7" cy="162.8" rx="25.9" ry="35"></ellipse>
<linearGradient id="SVGID_11_" gradientUnits="userSpaceOnUse" x1="86.0343" y1="-91.4324" x2="145.9943" y2="-130.3324" gradientTransform="matrix(1 0 0 -1 0 51.2756)">
	<stop offset="2.000000e-02" style="stop-color:#FFFFFF;stop-opacity:0"></stop>
	<stop offset="0.39" style="stop-color:#FFFFFF;stop-opacity:0.39"></stop>
	<stop offset="1" style="stop-color:#FFFFFF"></stop>
</linearGradient>
<ellipse class="st12" cx="115" cy="161.5" rx="21.2" ry="28.6"></ellipse>
<linearGradient id="SVGID_12_" gradientUnits="userSpaceOnUse" x1="87.9614" y1="-97.0232" x2="130.0214" y2="-124.3232" gradientTransform="matrix(1 0 0 -1 0 51.2756)">
	<stop offset="2.000000e-02" style="stop-color:#FFFFFF;stop-opacity:0"></stop>
	<stop offset="0.39" style="stop-color:#FFFFFF;stop-opacity:0.39"></stop>
	<stop offset="1" style="stop-color:#FFFFFF"></stop>
</linearGradient>
<ellipse class="st13" cx="108.3" cy="161.5" rx="14.9" ry="20.1"></ellipse>
<path class="st2" d="M250.1,118.9c0,0,13.5-24.4,20.4-24.9s0.2,29.2,0.2,29.2L250.1,118.9z"></path>
<linearGradient id="SVGID_13_" gradientUnits="userSpaceOnUse" x1="264.1378" y1="-69.4563" x2="308.6378" y2="-79.1762" gradientTransform="matrix(1 0 0 -1 -14.67 34.6756)">
	<stop offset="1.000000e-02" style="stop-color:#000000"></stop>
	<stop offset="0.83" style="stop-color:#000000;stop-opacity:7.000000e-02"></stop>
	<stop offset="1" style="stop-color:#000000;stop-opacity:0"></stop>
</linearGradient>
<path class="st14" d="M270.8,123.2l-17.7-3.6l-3-0.6c0,0,13.4-24.4,20.4-24.9c0.7-0.1,1.5,0.3,1.9,0.9  C276.1,99.9,270.8,123.2,270.8,123.2z"></path>
<linearGradient id="SVGID_14_" gradientUnits="userSpaceOnUse" x1="270.8365" y1="-70.8663" x2="291.4716" y2="-75.3674" gradientTransform="matrix(1 0 0 -1 -14.67 34.6756)">
	<stop offset="1.000000e-02" style="stop-color:#000000"></stop>
	<stop offset="0.83" style="stop-color:#000000;stop-opacity:7.000000e-02"></stop>
	<stop offset="1" style="stop-color:#000000;stop-opacity:0"></stop>
</linearGradient>
<path class="st15" d="M273.8,123.8l-20.7-4.2l0,0l17.7,3.6c0,0,5.3-23.3,1.6-28.2c0.4-0.1,0.7-0.2,1.1-0.3  C280.5,94.1,273.8,123.8,273.8,123.8z"></path>
<linearGradient id="SVGID_15_" gradientUnits="userSpaceOnUse" x1="267.6304" y1="-70.4841" x2="305.6404" y2="-78.7941" gradientTransform="matrix(1 0 0 -1 -14.67 34.6756)">
	<stop offset="1.000000e-02" style="stop-color:#000000"></stop>
	<stop offset="0.83" style="stop-color:#000000;stop-opacity:7.000000e-02"></stop>
	<stop offset="1" style="stop-color:#000000;stop-opacity:0"></stop>
</linearGradient>
<path class="st16" d="M270.8,123.2l-17.7-3.6c0.6-1,12.3-22,19.3-24.6C276.1,99.9,270.8,123.2,270.8,123.2z"></path>
<path class="st2" d="M262.9,135.3c0,0,13.1,4.1,20.9,3s-10.7-7.9-10.7-7.9L262.9,135.3z"></path>
<linearGradient id="SVGID_16_" gradientUnits="userSpaceOnUse" x1="299.7929" y1="-86.3615" x2="281.2229" y2="-112.9114" gradientTransform="matrix(1 0 0 -1 -14.67 34.6756)">
	<stop offset="1.000000e-02" style="stop-color:#000000"></stop>
	<stop offset="0.83" style="stop-color:#000000;stop-opacity:7.000000e-02"></stop>
	<stop offset="1" style="stop-color:#000000;stop-opacity:0"></stop>
</linearGradient>
<path class="st17" d="M285.8,137.3c0,0.4-0.6,0.8-1.9,1c-7.9,1.1-20.9-3-20.9-3l10.3-4.9l0,0C274,130.8,286,135.2,285.8,137.3z"></path>
<linearGradient id="SVGID_17_" gradientUnits="userSpaceOnUse" x1="299.0098" y1="-88.4082" x2="283.6297" y2="-110.4082" gradientTransform="matrix(1 0 0 -1 -14.67 34.6756)">
	<stop offset="1.000000e-02" style="stop-color:#000000"></stop>
	<stop offset="0.83" style="stop-color:#000000;stop-opacity:7.000000e-02"></stop>
	<stop offset="1" style="stop-color:#000000;stop-opacity:0"></stop>
</linearGradient>
<path class="st18" d="M285.8,137.3c-7.9,1-20.7-3-20.7-3l8.1-3.9C274,130.8,286,135.2,285.8,137.3z"></path>
<path class="st2" d="M156.9,118c0,0,15.6-12,17.7-12.7s21.8,22.9,21.8,22.9S177.3,135.6,156.9,118z"></path>
<g>
	<g>
		<g>
			<defs>
				<path id="SVGID_18_" d="M184.5,129.7c0,0,20.8-1.5,24.3-3.6c2.4-1.4,4.4-8.4,5.4-12.6c0.5-2,22.4-0.9,22.4-0.9      s-2.8-10.7-3.6-13.8c-0.2-0.8-25,6-25.2,5.1c-2.2-8.4-0.6-22-2.2-22.2c-2.5-0.2-19.8,8.8-19.8,8.8l-27.1,28.8l2.3,1.6      c5,3.6,10.1,6.7,16,7.5L184.5,129.7z"></path>
			</defs>
			<clipPath id="SVGID_19_">
				<use xlink:href="#SVGID_18_" style="overflow:visible;"></use>
			</clipPath>
			<g class="st19">
				<path class="st2" d="M189.6,112.2l-3.8,4.2c-0.2,0.3-0.5,0.5-0.8,0.7c-0.3,0.1-0.5,0.1-0.8,0.1c-0.9,0-1.8,0-2.8-0.1      c-1.3-0.2-2.6-0.3-3.9-0.4c-0.3,0-0.6,0-0.9,0.1c-0.2,0.1-0.4,0.2-0.5,0.4c-0.8,0.6-1.4,1.6-1.4,2.7c0.1,0.7,0.4,1.3,0.9,1.7      c0.6,0.7,1.4,1.3,2.4,1.6c1.2,0.4,2.5,0.6,3.8,0.6c1.2,0,2.3,0.1,3.5,0.1c0.9,0,1.8-0.1,2.6-0.5c0.7-0.4,1.2-0.9,1.7-1.4      c0.9-0.9,1.7-1.8,2.5-2.8c0.5-0.6,1-1.3,1.3-2c0.3-0.9,0.4-1.8,0.3-2.7c0-0.8-0.2-1.7-0.5-2.4c-0.2-0.5-0.9-1.7-1.6-1.7      S190.1,111.8,189.6,112.2z"></path>
				
					<linearGradient id="SVGID_20_" gradientUnits="userSpaceOnUse" x1="202.027" y1="-92.0413" x2="199.2269" y2="-83.2613" gradientTransform="matrix(1 0 0 -1 -14.67 34.6756)">
					<stop offset="1.000000e-02" style="stop-color:#000000"></stop>
					<stop offset="1" style="stop-color:#000000;stop-opacity:0"></stop>
				</linearGradient>
				<path class="st20" d="M189.6,112.2l-3.8,4.2c-0.2,0.3-0.5,0.5-0.8,0.7c-0.3,0.1-0.5,0.1-0.8,0.1c-0.9,0-1.8,0-2.8-0.1      c-1.3-0.2-2.6-0.3-3.9-0.4c-0.3,0-0.6,0-0.9,0.1c-0.2,0.1-0.4,0.2-0.5,0.4c-0.8,0.6-1.4,1.6-1.4,2.7c0.1,0.7,0.4,1.3,0.9,1.7      c0.6,0.7,1.4,1.3,2.4,1.6c1.2,0.4,2.5,0.6,3.8,0.6c1.2,0,2.3,0.1,3.5,0.1c0.9,0,1.8-0.1,2.6-0.5c0.7-0.4,1.2-0.9,1.7-1.4      c0.9-0.9,1.7-1.8,2.5-2.8c0.5-0.6,1-1.3,1.3-2c0.3-0.9,0.4-1.8,0.3-2.7c0-0.8-0.2-1.7-0.5-2.4c-0.2-0.5-0.9-1.7-1.6-1.7      S190.1,111.8,189.6,112.2z"></path>
				<path class="st2" d="M171.8,121.3c0.5,0.4,1.1,0.7,1.8,0.8c0.7,0.1,1.3,0.1,2,0c0.2,0,0.5,0,0.7-0.1s0.3-0.3,0.4-0.4      c0.7-1.1,0.3-2.6-0.8-3.3c-0.2-0.1-0.4-0.2-0.6-0.2c-0.4-0.1-0.9-0.1-1.3-0.1c-0.6,0-1.1,0.1-1.6,0.1c-0.4,0-0.9,0.2-1.2,0.5      c-0.3,0.5-0.5,1.1-0.4,1.7C170.9,120.6,171.5,121,171.8,121.3z"></path>
				
					<linearGradient id="SVGID_21_" gradientUnits="userSpaceOnUse" x1="185.5244" y1="-85.4119" x2="191.7704" y2="-85.4119" gradientTransform="matrix(1 0 0 -1 -14.67 34.6756)">
					<stop offset="1.000000e-02" style="stop-color:#000000"></stop>
					<stop offset="1" style="stop-color:#000000;stop-opacity:0"></stop>
				</linearGradient>
				<path class="st21" d="M171.8,121.3c0.5,0.4,1.1,0.7,1.8,0.8c0.7,0.1,1.3,0.1,2,0c0.2,0,0.5,0,0.7-0.1s0.3-0.3,0.4-0.4      c0.7-1.1,0.3-2.6-0.8-3.3c-0.2-0.1-0.4-0.2-0.6-0.2c-0.4-0.1-0.9-0.1-1.3-0.1c-0.6,0-1.1,0.1-1.6,0.1c-0.4,0-0.9,0.2-1.2,0.5      c-0.3,0.5-0.5,1.1-0.4,1.7C170.9,120.6,171.5,121,171.8,121.3z"></path>
				<path class="st2" d="M207.7,109.1c1.8,0.4,3.5,1.3,5.3,1.9c1.8,0.7,3.8,0.7,5.5-0.1c0.8-0.6,1.7-1.1,2.6-1.5      c1.3-0.4,2.7,0.2,4,0.6c2.7,0.9,5.9,1.1,8.3-0.5c0.6-0.4,1.2-1.2,1-1.9s-0.9-0.8-1.3-1.3c-0.8-0.9-0.2-2.3-0.2-3.6      c0-0.3-0.1-0.7-0.4-0.8c-0.1,0-0.3,0-0.4,0c-1,0.1-1.9,0.4-2.6,1.1c-0.8,0.8-1.4,1.8-2.4,2.4c-1.3,0.7-2.8,0.3-4.2,0      c-2-0.5-4.3-0.8-6.1,0.3c-0.7,0.6-1.5,1.1-2.3,1.5c-1.7,0.5-3.3-0.9-5-1.4c-2-0.5-4,0.3-5.9,1.2c-0.9,0.4-2.8,2.3-0.8,2.5      c0.7,0.1,1.5-0.5,2.2-0.6C205.9,108.8,206.8,108.8,207.7,109.1z"></path>
				
					<linearGradient id="SVGID_22_" gradientUnits="userSpaceOnUse" x1="222.15" y1="-71.9744" x2="254.7612" y2="-71.9744" gradientTransform="matrix(1 0 0 -1 -14.67 34.6756)">
					<stop offset="1.000000e-02" style="stop-color:#000000"></stop>
					<stop offset="1" style="stop-color:#000000;stop-opacity:0"></stop>
				</linearGradient>
				<path class="st22" d="M233.4,109.4c-0.6,0.5-1.3,0.8-2.1,1c-0.6,0.2-1.2,0.2-1.9,0.2c-0.8,0-1.6,0-2.4-0.2      c-0.4-0.1-0.9-0.2-1.3-0.3c-0.2,0-0.4-0.1-0.6-0.2c-0.5-0.2-1.1-0.4-1.6-0.5c-0.4-0.1-0.8-0.2-1.2-0.2s-0.8,0-1.2,0.1      c-0.6,0.2-1.1,0.5-1.6,0.9c-0.3,0.2-0.6,0.4-0.9,0.6l-0.2,0.1c-0.7,0.3-1.5,0.5-2.2,0.5c-0.4,0-0.7,0-1.1,0      c-0.7-0.1-1.3-0.2-2-0.4l-0.2-0.1c-0.4-0.1-0.7-0.3-1.1-0.4c-1.3-0.6-2.6-1-4-1.4c-0.9-0.2-1.8-0.3-2.8-0.2      c-0.7,0.1-1.5,0.6-2.2,0.6c-2.1-0.2-0.1-2.1,0.8-2.5c1.9-0.8,3.9-1.7,5.9-1.2c0.4,0.1,0.9,0.3,1.3,0.5c0.6,0.3,1.2,0.6,1.8,0.8      c0.5,0.2,1.1,0.3,1.7,0.2h0.2c0.6-0.2,1.1-0.5,1.5-0.9c0.3-0.2,0.5-0.4,0.8-0.6c0.2-0.1,0.4-0.2,0.7-0.3      c0.7-0.3,1.4-0.4,2.1-0.4c0.6,0,1.3,0,1.9,0.1c0.5,0.1,0.9,0.2,1.4,0.3l0.5,0.1c0.5,0.1,1.1,0.2,1.6,0.2c0.6,0.1,1.1,0,1.6-0.2      c0.2-0.1,0.3-0.1,0.5-0.2c0.4-0.3,0.8-0.6,1.1-1c0.4-0.5,0.8-1,1.3-1.4c0.3-0.2,0.6-0.4,0.9-0.6c0.5-0.3,1.1-0.4,1.7-0.5      c0.1,0,0.3,0,0.4,0.1c0.3,0.2,0.4,0.5,0.4,0.8c0,1.2-0.6,2.6,0.2,3.6c0.4,0.5,1.1,0.8,1.3,1.3S234,109,233.4,109.4z"></path>
				<path class="st2" d="M198.6,108.8c1.3-0.1,2.5,0.1,3.7,0.4s2.3,1,3.1,2c0.8,1.1,1.3,2.5,1.4,3.9c0,1.4,0,2.8-0.2,4.2      c-0.3,3.2-0.4,6.5-0.3,9.8c0,0.8,0.5,4.9-0.1,5.4c-0.4,0.4,0.3,0.7-0.1,0.8c-4,1-11.1,0.5-14.9-1.1c-1-0.3-1.8-1-2.4-1.9      c-0.5-1,0.9-5,1-6.1c0.5-3.4,0.9-6.8,1.1-10.2c0-1.6,0.1-3.1,0.3-4.7c0.2-1.1,0.9-1.4,1.9-1.6      C194.9,109.1,196.7,108.8,198.6,108.8z"></path>
				
					<linearGradient id="SVGID_23_" gradientUnits="userSpaceOnUse" x1="245.875" y1="-117.6205" x2="204.7951" y2="-79.6605" gradientTransform="matrix(1 0 0 -1 -14.67 34.6756)">
					<stop offset="1.000000e-02" style="stop-color:#000000"></stop>
					<stop offset="1" style="stop-color:#000000;stop-opacity:0"></stop>
				</linearGradient>
				<path class="st23" d="M201.8,126.5c-0.1,0.7-0.3,1.4-0.8,1.9c-0.4,0.4-0.8,0.7-1.3,0.8c-2.4,0.9-5.1,0.8-7.4,1.9      c-0.2,0.1-0.3,0.2-0.4,0.3c-0.4,0.5-0.4,1.2,0,1.7c0.8,1.1,2.3,1.4,3.6,1.6c3.2,0.6,6.5,0.8,9.8,0.4c0.2,0,0.3-0.1,0.5-0.2      c0.1-0.1,0.2-0.3,0.2-0.5c0.7-3.3,0.2-6.7,0.1-10c0-1.9,0.7-6.8,0.6-8.7c0-1.1-0.2-2.2-0.6-3.2c-0.3-0.8-1.2-2.4-1.7-0.9      c-0.9,3.4-1.6,6.9-2,10.4C202.3,123.6,202.1,125.1,201.8,126.5z"></path>
				<path class="st24" d="M195.5,111.4c-0.6-0.1-0.9-0.7-0.6-2c0-0.2,0.1-0.3,0.1-0.4s0,0,0-0.1l0,0c0.1-0.2,0.1-0.4,0.2-0.6      c0.2-0.5,0.3-1,0.3-1.6c-0.1-0.4,0-0.8,0.1-1.2c0.1-0.3,0.4-0.6,0.6-0.8c0.6-0.5,2.4-1.3,2.7-0.2c0.1,0.5,0.6,0.4,0.6,0.9      c0,0.7,0.1,1.5,0.4,2.1C200.3,108.3,196.9,111.6,195.5,111.4z"></path>
				
					<linearGradient id="SVGID_24_" gradientUnits="userSpaceOnUse" x1="212.2727" y1="-67.626" x2="211.2827" y2="-75.426" gradientTransform="matrix(1 0 0 -1 -14.67 34.6756)">
					<stop offset="1.000000e-02" style="stop-color:#000000"></stop>
					<stop offset="1" style="stop-color:#000000;stop-opacity:0"></stop>
				</linearGradient>
				<path class="st25" d="M195.1,108.6c0,0,3.1-1.2,3.8-3.1l-3.4,1.1C195.5,106.6,195.4,108.4,195.1,108.6z"></path>
				<path class="st2" d="M192.3,107c-0.3,0.6-0.4,1.2-0.3,1.8c-0.3-0.2-0.6-0.1-0.8,0.2c-0.1,0.3-0.2,0.6-0.2,0.9      c0,0.8,0,1.8,0.8,2.3c0.3,0.1,0.6,0.2,0.9,0.2c2,0.2,4-0.1,5.9-0.7c0.4-0.1,0.7-0.3,1.1-0.5c0.5-0.4,0.8-0.9,1.4-1      c0.3-0.1,0.6,0,0.9-0.1c0.6-0.2,0.9-0.8,0.7-1.4c0-0.1-0.1-0.2-0.2-0.4c-0.2-0.1-0.3-0.3-0.4-0.4c-0.1-0.2-0.1-0.4-0.1-0.7      c-0.2-0.5-0.6-0.8-1.1-0.9c-1.4-0.2-2.8,0.8-4.2,1C195.2,107.4,193.8,107.3,192.3,107z"></path>
				
					<linearGradient id="SVGID_25_" gradientUnits="userSpaceOnUse" x1="211.1178" y1="-68.6244" x2="211.7778" y2="-83.2944" gradientTransform="matrix(1 0 0 -1 -14.67 34.6756)">
					<stop offset="1.000000e-02" style="stop-color:#000000"></stop>
					<stop offset="1" style="stop-color:#000000;stop-opacity:0"></stop>
				</linearGradient>
				<path class="st26" d="M202.1,110.1c-0.3,0.1-0.6,0-0.9,0.1c-0.3,0.1-0.6,0.3-0.8,0.5s-0.4,0.4-0.6,0.6c-0.1,0.1-0.3,0.2-0.4,0.2      c-0.2,0.1-0.5,0.2-0.7,0.3c-0.6,0.2-1.1,0.3-1.7,0.4c-0.4,0.1-0.8,0.2-1.3,0.2l0,0c-0.7,0.1-1.4,0.1-2.1,0.1c-0.3,0-0.6,0-0.9,0      l-0.4-0.1c-0.2,0-0.4-0.1-0.6-0.2c-0.7-0.4-0.8-1.4-0.8-2.3c0-0.3,0.1-0.6,0.2-0.9c0.2-0.3,0.5-0.4,0.8-0.2      c-0.1-0.6,0-1.3,0.3-1.8c0.4,0.1,0.9,0.2,1.4,0.2h0.8c0.6,0,1.3,0.1,1.7,0.1c0.2,0,0.3,0,0.5,0l0.3-0.1c0.5-0.1,1-0.3,1.4-0.5      c0.2-0.1,0.5-0.2,0.7-0.3c0.6-0.2,1.2-0.3,1.7-0.2c0.5,0.1,1,0.4,1.1,0.9c0,0.2,0.1,0.5,0.1,0.7c0.1,0.2,0.3,0.3,0.4,0.4      c0.4,0.5,0.3,1.2-0.1,1.6C202.3,110,202.2,110.1,202.1,110.1z"></path>
				
					<linearGradient id="SVGID_26_" gradientUnits="userSpaceOnUse" x1="206.79" y1="-75.2744" x2="209.2" y2="-75.2744" gradientTransform="matrix(1 0 0 -1 -14.67 34.6756)">
					<stop offset="1.000000e-02" style="stop-color:#000000"></stop>
					<stop offset="1" style="stop-color:#000000;stop-opacity:0"></stop>
				</linearGradient>
				<path class="st27" d="M194.1,108.6c0.1,0.3,0,0.6-0.1,0.9c-0.2,0.3-0.6,0.3-0.8,0.7c0,0.1,0,0.2,0,0.3c0.1,0.7,0.3,1.4,0.4,2.1      c-0.3,0-0.6,0-0.9,0l-0.4-0.1c-0.2-0.7-0.3-1.5-0.2-2.3c0-0.3,0.2-0.7,0.4-0.9c0.1-0.1,0.3-0.1,0.4-0.2c0.2-0.2,0.3-0.4,0.4-0.6      c0.1-0.4,0.2-0.8,0.4-1.2h0.8C194.3,107.6,194.1,108.1,194.1,108.6z"></path>
				
					<linearGradient id="SVGID_27_" gradientUnits="userSpaceOnUse" x1="209.88" y1="-75.1244" x2="211.7" y2="-75.1244" gradientTransform="matrix(1 0 0 -1 -14.67 34.6756)">
					<stop offset="1.000000e-02" style="stop-color:#000000"></stop>
					<stop offset="1" style="stop-color:#000000;stop-opacity:0"></stop>
				</linearGradient>
				<path class="st28" d="M196.3,110.1c0,0.1,0,0.2,0,0.3c0.1,0.6,0.5,1.2,0.6,1.8c-0.4,0.1-0.8,0.2-1.3,0.2l0,0      c-0.3-0.7-0.5-1.4-0.5-2.1c0-0.3,0.1-0.7,0.3-0.9c0.1-0.1,0.2-0.2,0.3-0.3c0.2-0.2,0.2-0.4,0.2-0.7c0-0.4,0.1-0.7,0.2-1.1      c0.2,0,0.3,0,0.5,0l0.3-0.1c-0.2,0.4-0.2,0.8-0.1,1.2c0.1,0.3,0.2,0.6,0.1,0.9S196.4,109.8,196.3,110.1z"></path>
				
					<linearGradient id="SVGID_28_" gradientUnits="userSpaceOnUse" x1="217.0716" y1="-75.999" x2="210.3415" y2="-72.4789" gradientTransform="matrix(1 0 0 -1 -14.67 34.6756)">
					<stop offset="1.000000e-02" style="stop-color:#000000"></stop>
					<stop offset="1" style="stop-color:#000000;stop-opacity:0"></stop>
				</linearGradient>
				<path class="st29" d="M200.3,110.7c-0.2,0.2-0.4,0.4-0.6,0.6c-0.1,0.1-0.3,0.2-0.4,0.2c-0.4-0.5-0.8-1-1-1.7      c-0.1-0.3-0.1-0.7,0-1c0.1-0.1,0.2-0.2,0.2-0.3c0.1-0.2,0.1-0.5,0-0.7c-0.1-0.3-0.1-0.7-0.1-1c0.2-0.1,0.5-0.2,0.7-0.3      c0,0.4,0.1,0.7,0.3,1.1c0.1,0.3,0.4,0.5,0.3,0.8s-0.4,0.6-0.4,0.9c0,0.1,0,0.2,0.1,0.3C199.7,110,200,110.3,200.3,110.7z"></path>
				<path class="st24" d="M190.8,94.6l0.5,8.8c0.1,1.9,1.6,3.3,3.5,3.3c3.9,0,5.1-2.3,5.7-4s1.1-6.9,0-8.3S192.9,89.6,190.8,94.6z"></path>
				<polygon class="st2" points="196.8,100 198.1,99.9 198.1,97.5 196.6,97.6     "></polygon>
				
					<linearGradient id="SVGID_29_" gradientUnits="userSpaceOnUse" x1="197.063" y1="-44.3128" x2="198.123" y2="-52.9728" gradientTransform="matrix(1 0 0 -1 0 51.2756)">
					<stop offset="1.000000e-02" style="stop-color:#000000"></stop>
					<stop offset="1" style="stop-color:#000000;stop-opacity:0"></stop>
				</linearGradient>
				<polygon class="st30" points="196.8,100 198.1,99.9 198.1,97.5 196.6,97.6     "></polygon>
				<path class="st2" d="M199,104.6c0.2,0.6,0.3,1.2,0.5,1.7c0.1,0.3,0.2,0.6,0.5,0.8c0.4,0.2,0.8,0.1,1.2,0.3      c0.2,0.1,0.3,0.4,0.6,0.5s0.6,0.1,0.9,0.1c0.4,0,0.8,0.3,1.2,0.4c0.8,0,1.5-0.5,1.8-1.3c0.2-0.8,0.2-1.6,0-2.3l-0.1-0.6      c0-0.2-0.1-0.3-0.1-0.4c-0.1-0.1-0.2-0.2-0.3-0.2c-2.3-1.3-3.1-4.2-5.1-5.8c-0.3-0.2-1.3-0.8-1.7-0.3s0,1.8,0,2.3      C198.2,101.3,198.5,103,199,104.6z"></path>
				
					<linearGradient id="SVGID_30_" gradientUnits="userSpaceOnUse" x1="211.2365" y1="-69.8599" x2="222.1365" y2="-66.1199" gradientTransform="matrix(1 0 0 -1 -14.67 34.6756)">
					<stop offset="1.000000e-02" style="stop-color:#000000"></stop>
					<stop offset="1" style="stop-color:#000000;stop-opacity:0"></stop>
				</linearGradient>
				<path class="st31" d="M199,104.6c0.2,0.6,0.3,1.2,0.5,1.7c0.1,0.3,0.2,0.6,0.5,0.8c0.4,0.2,0.8,0.1,1.2,0.3      c0.2,0.1,0.3,0.4,0.6,0.5s0.6,0.1,0.9,0.1c0.4,0,0.8,0.3,1.2,0.4c0.8,0,1.5-0.5,1.8-1.3c0.2-0.8,0.2-1.6,0-2.3l-0.1-0.6      c0-0.2-0.1-0.3-0.1-0.4c-0.1-0.1-0.2-0.2-0.3-0.2c-2.3-1.3-3.1-4.2-5.1-5.8c-0.3-0.2-1.3-0.8-1.7-0.3s0,1.8,0,2.3      C198.2,101.3,198.5,103,199,104.6z"></path>
				<path class="st24" d="M200.6,99.5c0.1-0.2,0.2-0.3,0.3-0.4c0.3-0.2,0.6-0.3,0.9-0.3c0.1-0.1,0.3-0.1,0.4,0      c0.1,0.1,0.2,0.1,0.2,0.2c0.1,0.4,0.1,0.7-0.1,1.1c-0.1,0.3-0.3,0.6-0.5,0.8c-0.1,0.3-0.4,0.5-0.6,0.6c-0.2,0.2-0.5,0.2-0.8,0.2      h-0.1c0,0,0-0.1-0.1-0.1c0-0.4-0.1-0.7-0.1-1.1C200.3,100.2,200.4,99.8,200.6,99.5z"></path>
				
					<linearGradient id="SVGID_31_" gradientUnits="userSpaceOnUse" x1="240.1681" y1="-73.1311" x2="246.2781" y2="-71.4711" gradientTransform="matrix(1 0 0 -1 -14.67 34.6756)">
					<stop offset="1.000000e-02" style="stop-color:#000000"></stop>
					<stop offset="1" style="stop-color:#000000;stop-opacity:0"></stop>
				</linearGradient>
				<path class="st32" d="M231.3,110.4c-0.6,0.2-1.2,0.2-1.9,0.2v-0.1c-0.3-0.7-0.4-1.4-0.3-2.1c0.1-0.7,0-1.4-0.1-2.1      c-0.2-0.7-0.6-1.3-0.8-2l0,0c0.4-0.5,0.8-1,1.3-1.4c0.3-0.2,0.6-0.4,0.9-0.6c-0.1,0.1-0.1,0.3-0.2,0.4c-0.3,0.8-0.3,1.7-0.1,2.5      c0.1,0.4,0.2,0.9,0.3,1.3c0.1,0.6-0.2,1.3-0.1,1.9c0,0.6,0.3,1.3,0.8,1.7C231.1,110.2,231.2,110.3,231.3,110.4z"></path>
				
					<linearGradient id="SVGID_32_" gradientUnits="userSpaceOnUse" x1="238.0279" y1="-74.0636" x2="241.9379" y2="-73.0035" gradientTransform="matrix(1 0 0 -1 -14.67 34.6756)">
					<stop offset="1.000000e-02" style="stop-color:#000000"></stop>
					<stop offset="1" style="stop-color:#000000;stop-opacity:0"></stop>
				</linearGradient>
				<path class="st33" d="M227,110.4c-0.4-0.1-0.9-0.2-1.3-0.3c0-0.2,0-0.3,0-0.5c0.1-0.7,0-1.4-0.1-2.1c-0.2-0.6-0.5-1.2-0.8-1.8      c0.6,0.1,1.1,0,1.6-0.2c0,0.3,0,0.6,0.1,0.8c0.1,0.4,0.2,0.9,0.3,1.3c0.1,0.6-0.2,1.3-0.1,1.9      C226.8,109.8,226.9,110.1,227,110.4z"></path>
				
					<linearGradient id="SVGID_33_" gradientUnits="userSpaceOnUse" x1="234.371" y1="-73.2581" x2="238.491" y2="-72.1381" gradientTransform="matrix(1 0 0 -1 -14.67 34.6756)">
					<stop offset="1.000000e-02" style="stop-color:#000000"></stop>
					<stop offset="1" style="stop-color:#000000;stop-opacity:0"></stop>
				</linearGradient>
				<path class="st34" d="M223.5,109.4c-0.4-0.1-0.8-0.2-1.2-0.2c0-0.2,0-0.4-0.1-0.6c-0.2-0.7-0.6-1.3-0.8-2      c-0.2-0.5-0.2-1.1-0.1-1.6c0.5,0.1,0.9,0.2,1.4,0.3l0.5,0.1c-0.2,0.7-0.2,1.3,0,2c0.1,0.4,0.2,0.9,0.3,1.3      C223.6,109,223.6,109.2,223.5,109.4z"></path>
				
					<linearGradient id="SVGID_34_" gradientUnits="userSpaceOnUse" x1="229.7826" y1="-74.1069" x2="235.0526" y2="-72.6769" gradientTransform="matrix(1 0 0 -1 -14.67 34.6756)">
					<stop offset="1.000000e-02" style="stop-color:#000000"></stop>
					<stop offset="1" style="stop-color:#000000;stop-opacity:0"></stop>
				</linearGradient>
				<path class="st35" d="M219.5,110.2c-0.3,0.2-0.6,0.4-0.9,0.6l-0.2,0.1v-0.1c0.1-0.7,0-1.4-0.1-2.1c-0.2-0.7-0.6-1.3-0.8-2.1      c-0.1-0.4-0.2-0.9-0.1-1.4c0.7-0.3,1.4-0.4,2.1-0.4l-0.1,0.2c-0.3,0.8-0.3,1.7-0.1,2.5c0.1,0.4,0.2,0.9,0.3,1.3      C219.6,109.3,219.5,109.8,219.5,110.2z"></path>
				
					<linearGradient id="SVGID_35_" gradientUnits="userSpaceOnUse" x1="227.119" y1="-75.2307" x2="231.439" y2="-74.0507" gradientTransform="matrix(1 0 0 -1 -14.67 34.6756)">
					<stop offset="1.000000e-02" style="stop-color:#000000"></stop>
					<stop offset="1" style="stop-color:#000000;stop-opacity:0"></stop>
				</linearGradient>
				<path class="st36" d="M216.1,111.2c0,0.1,0,0.2,0,0.3c-0.4,0-0.7,0-1.1,0v-0.2c0.1-0.7,0-1.4-0.1-2.1c-0.2-0.7-0.6-1.3-0.8-1.9      h0.2c0.6-0.2,1.1-0.5,1.5-0.9c-0.1,0.6-0.1,1.2,0.1,1.7c0.1,0.4,0.2,0.9,0.3,1.3C216.3,109.9,216.1,110.5,216.1,111.2z"></path>
				
					<linearGradient id="SVGID_36_" gradientUnits="userSpaceOnUse" x1="224.1731" y1="-74.5331" x2="227.6431" y2="-73.5931" gradientTransform="matrix(1 0 0 -1 -14.67 34.6756)">
					<stop offset="1.000000e-02" style="stop-color:#000000"></stop>
					<stop offset="1" style="stop-color:#000000;stop-opacity:0"></stop>
				</linearGradient>
				<path class="st37" d="M212.8,110.9c-0.4-0.1-0.7-0.3-1.1-0.4c0-0.3,0-0.7-0.1-1c-0.2-0.7-0.6-1.3-0.8-2.1      c-0.1-0.4-0.1-0.8-0.1-1.1c0.6,0.3,1.2,0.6,1.8,0.8c0,0.4,0,0.8,0.1,1.2c0.1,0.4,0.2,0.9,0.3,1.3      C212.9,110,212.9,110.5,212.8,110.9z"></path>
				<path class="st2" d="M200.3,115.5c-0.9,1.7-1.6,3.6-3.1,4.7c-1.3,0.9-2.9,1.3-4.5,1.3c-1.6,0.1-3.1-0.1-4.7,0      c-0.5,0-0.9,0.1-1.4,0.3c-0.6,0.4-1,0.9-1.1,1.6c-0.4,0.9-0.4,1.9,0,2.7c0.6,1,2,1.2,3.3,1.3c3,0.1,6,0,9-0.4      c1.3-0.1,2.6-0.5,3.7-1.2c0.7-0.5,1.2-1.1,1.7-1.8c1.6-2,3.1-4.2,3.4-6.8c0.2-1.6,0-5.6-1.9-6.3      C203.1,110.3,201,114.3,200.3,115.5z"></path>
				
					<linearGradient id="SVGID_37_" gradientUnits="userSpaceOnUse" x1="217.1699" y1="-95.7185" x2="208.5699" y2="-81.4185" gradientTransform="matrix(1 0 0 -1 -14.67 34.6756)">
					<stop offset="1.000000e-02" style="stop-color:#000000"></stop>
					<stop offset="1" style="stop-color:#000000;stop-opacity:0"></stop>
				</linearGradient>
				<path class="st38" d="M200.3,115.5c-0.9,1.7-1.6,3.6-3.1,4.7c-1.3,0.9-2.9,1.3-4.5,1.3c-1.6,0.1-3.1-0.1-4.7,0      c-0.5,0-0.9,0.1-1.4,0.3c-0.6,0.4-1,0.9-1.1,1.6c-0.4,0.9-0.4,1.9,0,2.7c0.6,1,2,1.2,3.3,1.3c3,0.1,6,0,9-0.4      c1.3-0.1,2.6-0.5,3.7-1.2c0.7-0.5,1.2-1.1,1.7-1.8c1.6-2,3.1-4.2,3.4-6.8c0.2-1.6,0-5.6-1.9-6.3      C203.1,110.3,201,114.3,200.3,115.5z"></path>
				<path class="st2" d="M173.1,135.8c-4.9,0.2-9.1-3.6-9.3-8.5c-0.2-4.9,3.6-9.1,8.5-9.3c4.9-0.2,9.1,3.6,9.3,8.5      c0,0.1,0,0.3,0,0.4C181.7,131.7,177.9,135.7,173.1,135.8z M173.1,119.8c-3.9-0.2-7.2,2.9-7.4,6.8c-0.2,3.9,2.9,7.2,6.8,7.4      c3.9,0.2,7.2-2.9,7.4-6.8c0-0.1,0-0.2,0-0.3C179.9,123.1,176.9,120,173.1,119.8z"></path>
				
					<linearGradient id="SVGID_38_" gradientUnits="userSpaceOnUse" x1="186.2729" y1="-95.3782" x2="191.0129" y2="-82.1082" gradientTransform="matrix(1 0 0 -1 -14.67 34.6756)">
					<stop offset="1.000000e-02" style="stop-color:#000000"></stop>
					<stop offset="1" style="stop-color:#000000;stop-opacity:0"></stop>
				</linearGradient>
				<path class="st39" d="M173.1,135.8c-4.9,0.2-9.1-3.6-9.3-8.5c-0.2-4.9,3.6-9.1,8.5-9.3c4.9-0.2,9.1,3.6,9.3,8.5      c0,0.1,0,0.3,0,0.4C181.7,131.7,177.9,135.7,173.1,135.8z M173.1,119.8c-3.9-0.2-7.2,2.9-7.4,6.8c-0.2,3.9,2.9,7.2,6.8,7.4      c3.9,0.2,7.2-2.9,7.4-6.8c0-0.1,0-0.2,0-0.3C179.9,123.1,176.9,120,173.1,119.8z"></path>
				<path class="st2" d="M174.3,116.7c-0.5-0.3-1.1-0.4-1.7-0.4c-0.4,0-0.9,0.1-1.3,0.1c-0.7,0.1-1.4,0.2-2.1,0.4      c-0.7,0.1-1.4,0.4-1.9,0.9c-0.4,0.5-0.7,1.1-0.8,1.8c-0.1,0.2-0.1,0.5-0.1,0.7c0.1,0.1,0.1,0.3,0.2,0.4l0.8,1      c0.1,0.1,0.2,0.2,0.3,0.3c0.2,0.1,0.4,0.1,0.6,0.1c0.3,0,0.7,0,1-0.1c0.6-0.2,1.1-0.8,1.8-0.9c0.3,0,0.6,0,0.8-0.1      c0.4-0.2,0.6-0.7,0.6-1.1s0-0.9,0.1-1.3c0.1-0.2,0.2-0.3,0.4-0.4c0.9-0.1,1.7,0.5,2.6,0.4c0.3,0,0.5-0.2,0.5-0.5      c0-0.2-0.1-0.3-0.2-0.4C175.5,117.4,174.9,117,174.3,116.7z"></path>
				
					<linearGradient id="SVGID_39_" gradientUnits="userSpaceOnUse" x1="182.175" y1="-82.2322" x2="190.275" y2="-87.5923" gradientTransform="matrix(1 0 0 -1 -14.67 34.6756)">
					<stop offset="1.000000e-02" style="stop-color:#000000"></stop>
					<stop offset="1" style="stop-color:#000000;stop-opacity:0"></stop>
				</linearGradient>
				<path class="st40" d="M174.3,116.7c-0.5-0.3-1.1-0.4-1.7-0.4c-0.4,0-0.9,0.1-1.3,0.1c-0.7,0.1-1.4,0.2-2.1,0.4      c-0.7,0.1-1.4,0.4-1.9,0.9c-0.4,0.5-0.7,1.1-0.8,1.8c-0.1,0.2-0.1,0.5-0.1,0.7c0.1,0.1,0.1,0.3,0.2,0.4l0.8,1      c0.1,0.1,0.2,0.2,0.3,0.3c0.2,0.1,0.4,0.1,0.6,0.1c0.3,0,0.7,0,1-0.1c0.6-0.2,1.1-0.8,1.8-0.9c0.3,0,0.6,0,0.8-0.1      c0.4-0.2,0.6-0.7,0.6-1.1s0-0.9,0.1-1.3c0.1-0.2,0.2-0.3,0.4-0.4c0.9-0.1,1.7,0.5,2.6,0.4c0.3,0,0.5-0.2,0.5-0.5      c0-0.2-0.1-0.3-0.2-0.4C175.5,117.4,174.9,117,174.3,116.7z"></path>
				<path class="st2" d="M183.6,122.1c-1.3-0.3-2.4-1.5-3.8-1.6c-0.3,0-0.6,0-0.7,0.2c0,0.1,0,0.3,0,0.4c0.1,0.3,0.2,0.7,0.3,1      c-0.4,0-0.8,0.1-1.2,0.2s-0.7,0.5-0.9,0.8c-0.2,0.6,0.1,1.2,0.3,1.9c0.2,0.8,0.1,1.8,0.6,2.5c0.6,0.6,1.5,0.9,2.3,0.8      c1.9,0,3.7-0.7,5.1-1.9c0.2-0.2,0.4-0.4,0.5-0.6c0.3-1,0.3-2.1-0.1-3C185.6,122,184.3,122.2,183.6,122.1z"></path>
				
					<linearGradient id="SVGID_40_" gradientUnits="userSpaceOnUse" x1="191.9634" y1="-89.7339" x2="201.0312" y2="-89.7339" gradientTransform="matrix(1 0 0 -1 -14.67 34.6756)">
					<stop offset="1.000000e-02" style="stop-color:#000000"></stop>
					<stop offset="1" style="stop-color:#000000;stop-opacity:0"></stop>
				</linearGradient>
				<path class="st41" d="M183.6,122.1c-1.3-0.3-2.4-1.5-3.8-1.6c-0.3,0-0.6,0-0.7,0.2c0,0.1,0,0.3,0,0.4c0.1,0.3,0.2,0.7,0.3,1      c-0.4,0-0.8,0.1-1.2,0.2s-0.7,0.5-0.9,0.8c-0.2,0.6,0.1,1.2,0.3,1.9c0.2,0.8,0.1,1.8,0.6,2.5c0.6,0.6,1.5,0.9,2.3,0.8      c1.9,0,3.7-0.7,5.1-1.9c0.2-0.2,0.4-0.4,0.5-0.6c0.3-1,0.3-2.1-0.1-3C185.6,122,184.3,122.2,183.6,122.1z"></path>
				<path class="st2" d="M185,122.2c-0.1,0-0.2,0-0.3,0.1s-0.1,0.1-0.1,0.2c0,0.4,0.1,0.9,0.2,1.2c0,0.2,0.1,0.5,0.1,0.7      s0,0.5,0,0.7s-0.1,0.4-0.1,0.7c0,0.2,0,0.4,0.1,0.6c0,0.4,0.3,0.8,0.8,0.8c0.1,0,0.1,0,0.2,0c0.2,0,0.4,0,0.5-0.1      s0.2-0.2,0.2-0.3c0.1-0.2,0.2-0.5,0.2-0.8c0-1,0-2.1-0.2-3.1c0-0.3-0.1-0.7-0.4-0.8C185.8,122.1,185.4,122.1,185,122.2z"></path>
				
					<linearGradient id="SVGID_41_" gradientUnits="userSpaceOnUse" x1="196.8962" y1="-90.4348" x2="202.8162" y2="-89.6848" gradientTransform="matrix(1 0 0 -1 -14.67 34.6756)">
					<stop offset="1.000000e-02" style="stop-color:#000000"></stop>
					<stop offset="1" style="stop-color:#000000;stop-opacity:0"></stop>
				</linearGradient>
				<path class="st42" d="M185,122.2c-0.1,0-0.2,0-0.3,0.1s-0.1,0.1-0.1,0.2c0,0.4,0.1,0.9,0.2,1.2c0,0.2,0.1,0.5,0.1,0.7      s0,0.5,0,0.7s-0.1,0.4-0.1,0.7c0,0.2,0,0.4,0.1,0.6c0,0.4,0.3,0.8,0.8,0.8c0.1,0,0.1,0,0.2,0c0.2,0,0.4,0,0.5-0.1      s0.2-0.2,0.2-0.3c0.1-0.2,0.2-0.5,0.2-0.8c0-1,0-2.1-0.2-3.1c0-0.3-0.1-0.7-0.4-0.8C185.8,122.1,185.4,122.1,185,122.2z"></path>
			</g>
		</g>
	</g>
</g>
<linearGradient id="SVGID_42_" gradientUnits="userSpaceOnUse" x1="203.0047" y1="-73.6606" x2="185.0547" y2="-96.3406" gradientTransform="matrix(1 0 0 -1 -14.67 34.6756)">
	<stop offset="2.000000e-02" style="stop-color:#FFFFFF;stop-opacity:0"></stop>
	<stop offset="0.39" style="stop-color:#FFFFFF;stop-opacity:0.39"></stop>
	<stop offset="1" style="stop-color:#FFFFFF"></stop>
</linearGradient>
<path class="st43" d="M156.9,118c0,0,15.6-12,17.7-12.7s21.8,22.9,21.8,22.9S177.3,135.6,156.9,118z"></path>
<path class="st2" d="M205.3,123.1"></path>
<linearGradient id="SVGID_43_" gradientUnits="userSpaceOnUse" x1="185.738" y1="-71.0201" x2="191.968" y2="-91.8301" gradientTransform="matrix(1 0 0 -1 -14.67 34.6756)">
	<stop offset="2.000000e-02" style="stop-color:#FFFFFF;stop-opacity:0"></stop>
	<stop offset="0.39" style="stop-color:#FFFFFF;stop-opacity:0.39"></stop>
	<stop offset="1" style="stop-color:#FFFFFF"></stop>
</linearGradient>
<path class="st44" d="M181.6,111.6l-19.4,10.3c0,0,6.7,4.2,8.2,4.6l18.4-7.4L181.6,111.6z"></path>
<path class="st2" d="M194.8,96.4c1.4,0.1,3,0.3,3.5,1.5c0.2,0.5,0.3,1.1,0.3,1.6c0,1.6,0.5,3.2,1.4,4.6c0.6,0.8,1.5,1.4,2.5,1.6  c0.5,0.1,0.9,0.1,1.4,0c0.5,0,0.9-0.1,1.3-0.4c0.3-0.4,0.5-0.9,0.3-1.3c-0.2-0.7-1-1.1-1.5-1.8c-0.4-0.8-0.5-1.8-0.4-2.7  c0-1-0.2-2.1-0.2-3.1c0-0.8-0.1-1.7-0.3-2.5c-0.5-1.6-1.5-3-2.9-4c-2.3-1.6-7.2-2.3-9.2,0.4c-0.7,1.2-1.1,2.6-1.1,4.1  c-0.1,1.2-0.1,1.8,1.1,2C192.4,96.4,193.6,96.4,194.8,96.4z"></path>
<linearGradient id="SVGID_44_" gradientUnits="userSpaceOnUse" x1="222.7706" y1="-61.6412" x2="210.4306" y2="-62.7612" gradientTransform="matrix(1 0 0 -1 -14.67 34.6756)">
	<stop offset="1.000000e-02" style="stop-color:#000000"></stop>
	<stop offset="1" style="stop-color:#000000;stop-opacity:0"></stop>
</linearGradient>
<path class="st45" d="M194.8,96.4c1.4,0.1,3,0.3,3.5,1.5c0.2,0.5,0.3,1.1,0.3,1.6c0,1.6,0.5,3.2,1.4,4.6c0.6,0.8,1.5,1.4,2.5,1.6  c0.5,0.1,0.9,0.1,1.4,0c0.5,0,0.9-0.1,1.3-0.4c0.3-0.4,0.5-0.9,0.3-1.3c-0.2-0.7-1-1.1-1.5-1.8c-0.4-0.8-0.5-1.8-0.4-2.7  c0-1-0.2-2.1-0.2-3.1c0-0.8-0.1-1.7-0.3-2.5c-0.5-1.6-1.5-3-2.9-4c-2.3-1.6-7.2-2.3-9.2,0.4c-0.7,1.2-1.1,2.6-1.1,4.1  c-0.1,1.2-0.1,1.8,1.1,2C192.4,96.4,193.6,96.4,194.8,96.4z"></path>
<path class="st2" d="M191.2,91.6c-1,0-2.1,0.1-2.7,1c-0.3,0.7-0.3,1.6,0.1,2.3c0.1,0.3,0.4,0.6,0.7,0.9c0.5,0.2,1,0.3,1.5,0.3  c2.1-0.1,4.2,0.1,6.3,0.5c1.1,0.3,2.2,0.7,3.3,1s2.3,0.4,3.4,0.2c0.5,0,0.8-0.5,0.8-0.9v-0.1c0-0.6-0.1-1.3-0.3-1.9  c-0.1-0.3-0.3-0.6-0.5-0.9c-0.3-0.3-0.7-0.5-1.1-0.6c-0.8-0.3-1.7-0.5-2.6-0.7c-3.2-0.7-6.5-1-9.8-1.1"></path>
<linearGradient id="SVGID_45_" gradientUnits="userSpaceOnUse" x1="210.991" y1="-64.803" x2="211.171" y2="-58.593" gradientTransform="matrix(1 0 0 -1 -14.67 34.6756)">
	<stop offset="1.000000e-02" style="stop-color:#000000"></stop>
	<stop offset="1" style="stop-color:#000000;stop-opacity:0"></stop>
</linearGradient>
<path class="st46" d="M191.2,91.6c-1,0-2.1,0.1-2.7,1c-0.3,0.7-0.3,1.6,0.1,2.3c0.1,0.3,0.4,0.6,0.7,0.9c0.5,0.2,1,0.3,1.5,0.3  c2.1-0.1,4.2,0.1,6.3,0.5c1.1,0.3,2.2,0.7,3.3,1s2.3,0.4,3.4,0.2c0.5,0,0.8-0.5,0.8-0.9v-0.1c0-0.6-0.1-1.3-0.3-1.9  c-0.1-0.3-0.3-0.6-0.5-0.9c-0.3-0.3-0.7-0.5-1.1-0.6c-0.8-0.3-1.7-0.5-2.6-0.7c-3.2-0.7-6.5-1-9.8-1.1"></path>
<linearGradient id="SVGID_46_" gradientUnits="userSpaceOnUse" x1="210.0975" y1="-57.2161" x2="207.1375" y2="-64.1661" gradientTransform="matrix(1 0 0 -1 -14.67 34.6756)">
	<stop offset="1.000000e-02" style="stop-color:#000000"></stop>
	<stop offset="1" style="stop-color:#000000;stop-opacity:0"></stop>
</linearGradient>
<path class="st47" d="M198.4,98.1c0-0.1,0-0.2-0.1-0.2c-0.6-1.2-2.2-1.4-3.5-1.5c-1.2,0-2.4,0-3.6-0.1c-1.2-0.2-2.6-0.7-2.5-1.8  c0.1,0,1.5-0.1,1.6-0.1h2.6c1.3-0.1,2.6,0.2,3.8,0.8c0.7,0.4,1.2,1.1,1.5,1.8C198.4,97.3,198.5,97.7,198.4,98.1z"></path>
<path class="st2" d="M190.6,96.8h0.3c0.9,0,1.6,0.7,1.6,1.7v0.8c0,0.9-0.7,1.7-1.6,1.7h-0.3c-0.9,0-1.6-0.7-1.6-1.7v-0.8  C189,97.5,189.7,96.8,190.6,96.8z"></path>
<path class="st2" d="M194.4,96.9h0.6c1,0,1.9,0.8,1.9,1.9v0.6c0,1-0.8,1.9-1.9,1.9h-0.6c-1,0-1.9-0.8-1.9-1.9v-0.6  C192.6,97.7,193.4,96.9,194.4,96.9z"></path>
<linearGradient id="SVGID_47_" gradientUnits="userSpaceOnUse" x1="188.5335" y1="-43.5025" x2="194.5835" y2="-55.2225" gradientTransform="matrix(1 0 0 -1 0 51.2756)">
	<stop offset="1.000000e-02" style="stop-color:#000000"></stop>
	<stop offset="1" style="stop-color:#000000;stop-opacity:0"></stop>
</linearGradient>
<path class="st48" d="M190.6,96.8L190.6,96.8c0.9,0,1.5,0.7,1.5,1.5v1c0,0.8-0.7,1.5-1.5,1.5l0,0c-0.8,0-1.5-0.7-1.5-1.5v-1  C189.1,97.5,189.8,96.8,190.6,96.8z"></path>
<linearGradient id="SVGID_48_" gradientUnits="userSpaceOnUse" x1="191.0735" y1="-42.1929" x2="197.1135" y2="-53.9129" gradientTransform="matrix(1 0 0 -1 0 51.2756)">
	<stop offset="1.000000e-02" style="stop-color:#000000"></stop>
	<stop offset="1" style="stop-color:#000000;stop-opacity:0"></stop>
</linearGradient>
<path class="st49" d="M193.8,96.9h0.3c0.9,0,1.7,0.8,1.7,1.7v0.9c0,0.9-0.8,1.7-1.7,1.7h-0.3c-0.9,0-1.7-0.8-1.7-1.7v-0.9  C192.1,97.6,192.9,96.9,193.8,96.9z"></path>
<linearGradient id="SVGID_49_" gradientUnits="userSpaceOnUse" x1="164.0111" y1="-276.7331" x2="158.0912" y2="-185.5931" gradientTransform="matrix(1 0 0 -1 -14.67 34.6756)">
	<stop offset="2.000000e-02" style="stop-color:#FFFFFF;stop-opacity:0"></stop>
	<stop offset="0.39" style="stop-color:#FFFFFF;stop-opacity:0.39"></stop>
	<stop offset="1" style="stop-color:#FFFFFF"></stop>
</linearGradient>
<path class="st50" d="M279.5,262.9c-1.7,1.7-3.7,3-5.9,3.9c-18.7,8.9-39.6,12.3-60.1,9.8c-2.4-0.3-5.1-0.7-7.2,0.5s-3.3,3.3-4.5,5.3  c-7.2,11.3-20.5,17.5-33.8,19.2s-26.7-0.5-39.9-2.7c-2.4,4.5-7.7,6.6-12.7,7.8l-0.7,0.2c-12.8-9.9-22.6-23.9-34.3-35.3  c-23.1-22.3-55.3-36.2-71-64.2c-1.2-2.3-2.4-4.6-3.4-7c8.4-10.6,21.4-17,37.1-14.5c13.8,2.4,25.2,11.9,30,25.1  c0.9-9,13.6-12.3,21.3-7.7s11.4,13.7,14.5,22.1c11.9-14.4,33.2-16.5,47.6-4.6c3.3,2.8,6.1,6.1,8.2,9.9  c14.1-13.6,36.3-14.3,55.6-10.4c14.4,2.9,30.3,10,34,24.2c6.7-2.5,14.6-3.5,20.8,0.1S284.3,257.5,279.5,262.9z"></path>
<linearGradient id="SVGID_50_" gradientUnits="userSpaceOnUse" x1="140.7968" y1="-60.7919" x2="117.8068" y2="8.7481" gradientTransform="matrix(1 0 0 -1 -14.67 34.6756)">
	<stop offset="2.000000e-02" style="stop-color:#FFFFFF;stop-opacity:0"></stop>
	<stop offset="0.39" style="stop-color:#FFFFFF;stop-opacity:0.39"></stop>
	<stop offset="1" style="stop-color:#FFFFFF"></stop>
</linearGradient>
<path class="st51" d="M213.8,66.9c-0.2,2.5-3.1,3.7-5.5,4.4c-57,16.3-115.9,25.4-175.2,27.1c-1.1,0-2.2,0-3.4,0c2.3-2.5,4.6-5,7-7.4  c10.7-10.6,22.9-20,31.1-32.7c1.2-1.8,2.2-3.7,3.3-5.6c3.7,0,7.2,0.5,7.4,1.9C77,44.4,84,34.9,94.1,33.3c5.7-0.9,11.6,0.9,15.8,4.9  c3.2-7.7,8.5-15.5,16.6-17.4c7.1-1.7,14.6,1.8,19.6,7.1s8.1,12,11.1,18.7c11.1-3.7,24.4,1.3,30.3,11.4c8.1-5.7,21-2.6,25.6,6.2  C213.5,65,213.8,65.9,213.8,66.9z"></path>
<g id="XMLID_38_">
	<path id="XMLID_44_" class="st52" d="M36.1,120.6L36.1,120.6C21.7,115,14.4,98.8,20,84.4l0,0c5.5-14.5,21.7-21.7,36.2-16.2l0,0   c14.5,5.5,21.7,21.7,16.2,36.2l0,0C66.8,118.8,50.6,126.1,36.1,120.6z"></path>
	<path id="XMLID_2_" class="st53" d="M41.8,111.6h7V94.2h4.9l0.5-5.8h-5.4c0,0,0-2.2,0-3.3c0-1.4,0.3-1.9,1.6-1.9c1.1,0,3.8,0,3.8,0   v-6c0,0-4,0-4.8,0c-5.2,0-7.5,2.3-7.5,6.6c0,3.8,0,4.6,0,4.6h-3.6v5.9h3.6L41.8,111.6L41.8,111.6z"></path>
</g>
<g id="XMLID_24_">
	<path id="XMLID_26_" class="st52" d="M166.3,289.6L166.3,289.6c-12.9,0-23.4-10.5-23.4-23.4l0,0c0-12.9,10.5-23.4,23.4-23.4l0,0   c12.9,0,23.4,10.5,23.4,23.4l0,0C189.7,279.1,179.2,289.6,166.3,289.6z"></path>
	<path id="XMLID_25_" class="st53" d="M153.8,274c2.3,1.5,5,2.3,7.8,2.3c9.5,0,14.9-8,14.6-15.2c1-0.7,1.9-1.6,2.6-2.7   c-0.9,0.4-1.9,0.7-2.9,0.8c1.1-0.6,1.9-1.6,2.3-2.8c-1,0.6-2.1,1-3.3,1.2c-0.9-1-2.3-1.6-3.7-1.6c-3.3,0-5.7,3.1-5,6.3   c-4.3-0.2-8-2.3-10.6-5.4c-1.3,2.3-0.7,5.3,1.6,6.8c-0.8,0-1.6-0.3-2.3-0.6c-0.1,2.4,1.6,4.6,4.1,5.1c-0.7,0.2-1.5,0.2-2.3,0.1   c0.7,2,2.5,3.5,4.8,3.6C159.2,273.6,156.5,274.4,153.8,274z"></path>
</g>
<g id="XMLID_4_">
	<path id="XMLID_21_" class="st52" d="M311.9,94.6L311.9,94.6c-19.4-5.9-30.4-26.5-24.5-45.9l0,0c5.9-19.4,26.5-30.4,45.9-24.5l0,0   c19.4,5.9,30.4,26.5,24.5,45.9l0,0C351.9,89.6,331.3,100.5,311.9,94.6z"></path>
	<g id="XMLID_5_">
		<path id="XMLID_14_" class="st53" d="M327.4,43.6c5.2,1.6,5.8,1.8,7.8,2.5c1.9,0.7,2.8,1.3,3.4,1.8c0.8,0.6,1.3,1.2,1.8,2.1    c0.5,0.9,0.7,1.7,0.8,2.7c0.1,0.8,0.1,1.9-0.4,3.8c-0.5,2.1-0.7,2.7-2.3,7.8c-1.6,5.2-1.8,5.8-2.5,7.8c-0.7,1.9-1.3,2.8-1.8,3.4    c-0.6,0.8-1.2,1.3-2.1,1.8s-1.7,0.7-2.7,0.8c-0.8,0.1-1.9,0.1-3.8-0.4c-2.1-0.5-2.7-0.7-7.8-2.3c-5.2-1.6-5.8-1.8-7.8-2.5    c-1.9-0.7-2.8-1.3-3.4-1.8c-0.8-0.6-1.3-1.2-1.8-2.1s-0.7-1.7-0.8-2.7c-0.1-0.8-0.1-1.9,0.4-3.8c0.5-2.1,0.7-2.7,2.3-7.8    c1.6-5.2,1.8-5.8,2.5-7.8c0.7-1.9,1.3-2.8,1.8-3.4c0.6-0.8,1.2-1.3,2.1-1.8s1.7-0.7,2.7-0.8c0.8-0.1,1.9-0.1,3.8,0.4    C321.7,41.8,322.3,42,327.4,43.6 M328.5,40.1c-5.2-1.6-5.9-1.8-8-2.3s-3.6-0.6-5-0.5s-2.7,0.4-4.1,1.2c-1.4,0.7-2.4,1.6-3.3,2.7    c-0.9,1.1-1.6,2.4-2.3,4.4c-0.7,2-0.9,2.7-2.5,7.9s-1.8,5.9-2.3,8s-0.6,3.6-0.5,5c0.1,1.4,0.4,2.7,1.2,4.1    c0.7,1.4,1.6,2.4,2.7,3.3s2.4,1.6,4.4,2.3c2,0.7,2.7,0.9,7.9,2.5c5.2,1.6,5.9,1.8,8,2.3s3.6,0.6,5,0.5s2.7-0.4,4.1-1.2    c1.4-0.7,2.4-1.6,3.3-2.7s1.6-2.4,2.3-4.4c0.7-2,0.9-2.7,2.5-7.9s1.8-5.9,2.3-8s0.6-3.6,0.5-5s-0.4-2.7-1.2-4.1    c-0.7-1.4-1.6-2.4-2.7-3.3c-1.1-0.9-2.4-1.6-4.4-2.3C334.4,41.9,333.7,41.7,328.5,40.1"></path>
		<path id="XMLID_8_" class="st53" d="M325.6,49.5c-5.5-1.7-11.3,1.4-12.9,6.9c-1.7,5.5,1.4,11.3,6.9,12.9    c5.5,1.7,11.3-1.4,12.9-6.9C334.2,56.9,331.1,51.1,325.6,49.5 M320.7,65.8c-3.6-1.1-5.6-4.8-4.5-8.4c1.1-3.6,4.8-5.6,8.4-4.5    s5.6,4.8,4.5,8.4C328,64.9,324.2,66.9,320.7,65.8"></path>
		<path id="XMLID_7_" class="st53" d="M338.4,52.9c-0.4,1.3-1.7,2-3,1.6s-2-1.7-1.6-3s1.7-2,3-1.6C338,50.3,338.8,51.7,338.4,52.9"></path>
	</g>
</g>
</svg>
